<svg width="28" height="28" viewBox="0 0 28 28" fill="none" xmlns="http://www.w3.org/2000/svg">
<path d="M24.5 5.25003V10.5C24.5 10.7321 24.4078 10.9547 24.2437 11.1187C24.0796 11.2828 23.8571 11.375 23.625 11.375H18.375C18.2018 11.3752 18.0325 11.3239 17.8885 11.2278C17.7445 11.1316 17.6322 10.9949 17.566 10.835C17.4997 10.675 17.4823 10.499 17.5162 10.3291C17.55 10.1593 17.6334 10.0033 17.7559 9.88096L19.7586 7.87503C18.1476 6.33146 16.0047 5.46641 13.7736 5.45893H13.7244C11.4382 5.45445 9.24211 6.35031 7.61141 7.95268C7.4443 8.10867 7.22279 8.19308 6.99425 8.18784C6.76571 8.18259 6.5483 8.08812 6.38853 7.92463C6.22875 7.76114 6.13931 7.54162 6.13932 7.31302C6.13933 7.08442 6.2288 6.86491 6.38859 6.70143C8.33916 4.79566 10.9547 3.72352 13.6817 3.71189C16.4087 3.70025 19.0332 4.75003 21 6.63909L23.0081 4.63096C23.1306 4.5092 23.2864 4.42641 23.4558 4.39303C23.6253 4.35964 23.8008 4.37714 23.9604 4.44334C24.1199 4.50953 24.2562 4.62145 24.3523 4.765C24.4483 4.90856 24.4997 5.07732 24.5 5.25003ZM20.3886 20.0474C18.7678 21.6304 16.5962 22.5231 14.3307 22.5375C12.0651 22.552 9.88229 21.6872 8.24141 20.125L10.2441 18.1224C10.3677 18.0002 10.4522 17.8439 10.4866 17.6735C10.5211 17.5031 10.504 17.3264 10.4376 17.1657C10.3712 17.0051 10.2584 16.8678 10.1137 16.7715C9.96897 16.6752 9.79884 16.6242 9.625 16.625H4.375C4.14294 16.625 3.92038 16.7172 3.75628 16.8813C3.59219 17.0454 3.5 17.268 3.5 17.5V22.75C3.49986 22.9232 3.55111 23.0925 3.64724 23.2365C3.74338 23.3805 3.88009 23.4928 4.04006 23.5591C4.20003 23.6254 4.37607 23.6427 4.54589 23.6089C4.71572 23.575 4.87169 23.4916 4.99406 23.3691L7 21.361C8.93834 23.2317 11.5249 24.2804 14.2188 24.2878H14.2767C17.0199 24.2949 19.6555 23.221 21.6125 21.2986C21.7723 21.1351 21.8618 20.9156 21.8618 20.687C21.8618 20.4584 21.7723 20.2389 21.6126 20.0754C21.4528 19.9119 21.2354 19.8175 21.0068 19.8122C20.7783 19.807 20.5568 19.8914 20.3897 20.0474H20.3886Z" fill="#0E0E0E"/>
</svg>
