<svg width="33" height="32" viewBox="0 0 33 32" fill="none" xmlns="http://www.w3.org/2000/svg">
<path d="M30.667 12.75C30.667 21.5 17.6932 28.5825 17.1407 28.875C16.9951 28.9533 16.8323 28.9943 16.667 28.9943C16.5016 28.9943 16.3389 28.9533 16.1932 28.875C15.6407 28.5825 2.66699 21.5 2.66699 12.75C2.66931 10.6953 3.48657 8.72539 4.93947 7.27248C6.39238 5.81958 8.36228 5.00232 10.417 5C12.9982 5 15.2582 6.11 16.667 7.98625C18.0757 6.11 20.3357 5 22.917 5C24.9717 5.00232 26.9416 5.81958 28.3945 7.27248C29.8474 8.72539 30.6647 10.6953 30.667 12.75Z" fill="#FF424F"/>
</svg>
