<svg width="33" height="32" viewBox="0 0 33 32" fill="none" xmlns="http://www.w3.org/2000/svg">
<path d="M22.5835 5C20.0022 5 17.7422 6.11 16.3335 7.98625C14.9247 6.11 12.6647 5 10.0835 5C8.02878 5.00232 6.05888 5.81958 4.60598 7.27248C3.15307 8.72539 2.33581 10.6953 2.3335 12.75C2.3335 21.5 15.3072 28.5825 15.8597 28.875C16.0054 28.9533 16.1681 28.9943 16.3335 28.9943C16.4989 28.9943 16.6616 28.9533 16.8072 28.875C17.3597 28.5825 30.3335 21.5 30.3335 12.75C30.3312 10.6953 29.5139 8.72539 28.061 7.27248C26.6081 5.81958 24.6382 5.00232 22.5835 5ZM16.3335 26.85C14.051 25.52 4.3335 19.4613 4.3335 12.75C4.33548 11.2256 4.94192 9.76423 6.01982 8.68633C7.09773 7.60842 8.55911 7.00198 10.0835 7C12.5147 7 14.556 8.295 15.4085 10.375C15.4838 10.5584 15.612 10.7153 15.7767 10.8257C15.9414 10.9361 16.1352 10.995 16.3335 10.995C16.5318 10.995 16.7256 10.9361 16.8903 10.8257C17.055 10.7153 17.1832 10.5584 17.2585 10.375C18.111 8.29125 20.1522 7 22.5835 7C24.1079 7.00198 25.5693 7.60842 26.6472 8.68633C27.7251 9.76423 28.3315 11.2256 28.3335 12.75C28.3335 19.4513 18.6135 25.5188 16.3335 26.85Z" fill="#FF424F"/>
</svg>
