<svg width="28" height="28" viewBox="0 0 28 28" fill="none" xmlns="http://www.w3.org/2000/svg">
<path d="M27.125 14C27.1251 15.2114 26.7659 16.3957 26.0929 17.4031C25.4199 18.4104 24.4632 19.1955 23.344 19.6591C22.2247 20.1228 20.9931 20.2441 19.8049 20.0077C18.6168 19.7713 17.5253 19.1879 16.6687 18.3312L16.6327 18.2929L10.0756 10.8882C9.46174 10.2815 8.68211 9.86995 7.83486 9.7053C6.98761 9.54065 6.11058 9.63028 5.31415 9.96292C4.51772 10.2956 3.83747 10.8563 3.35901 11.5747C2.88055 12.293 2.62526 13.1369 2.62526 14C2.62526 14.8631 2.88055 15.7069 3.35901 16.4252C3.83747 17.1436 4.51772 17.7044 5.31415 18.037C6.11058 18.3696 6.98761 18.4593 7.83486 18.2946C8.68211 18.13 9.46174 17.7184 10.0756 17.1117L11.0075 16.0595C11.0837 15.9733 11.1761 15.903 11.2795 15.8525C11.3829 15.8021 11.4952 15.7725 11.61 15.7654C11.7248 15.7583 11.8399 15.774 11.9487 15.8114C12.0575 15.8488 12.1578 15.9073 12.244 15.9835C12.3302 16.0597 12.4005 16.1521 12.4509 16.2555C12.5014 16.3588 12.531 16.4712 12.5381 16.586C12.5451 16.7008 12.5295 16.8159 12.4921 16.9247C12.4547 17.0334 12.3962 17.1338 12.32 17.22L11.3695 18.2929L11.3334 18.3312C10.4768 19.1877 9.38544 19.771 8.19732 20.0073C7.00921 20.2436 5.77771 20.1223 4.65854 19.6587C3.53938 19.1951 2.58283 18.41 1.90983 17.4028C1.23683 16.3955 0.877625 15.2113 0.877625 14C0.877625 12.7886 1.23683 11.6044 1.90983 10.5972C2.58283 9.58992 3.53938 8.80486 4.65854 8.34125C5.77771 7.87765 7.00921 7.75632 8.19732 7.9926C9.38544 8.22888 10.4768 8.81217 11.3334 9.66871L11.3695 9.70699L17.9266 17.1117C18.5404 17.7184 19.3201 18.13 20.1673 18.2946C21.0146 18.4593 21.8916 18.3696 22.688 18.037C23.4845 17.7044 24.1647 17.1436 24.6432 16.4252C25.1216 15.7069 25.3769 14.8631 25.3769 14C25.3769 13.1369 25.1216 12.293 24.6432 11.5747C24.1647 10.8563 23.4845 10.2956 22.688 9.96292C21.8916 9.63028 21.0146 9.54065 20.1673 9.7053C19.3201 9.86995 18.5404 10.2815 17.9266 10.8882L16.9947 11.9404C16.8408 12.1145 16.6241 12.2203 16.3922 12.2345C16.1603 12.2488 15.9322 12.1703 15.7582 12.0164C15.5842 11.8626 15.4784 11.6458 15.4641 11.4139C15.4499 11.1821 15.5283 10.954 15.6822 10.78L16.6327 9.70699L16.6687 9.66871C17.5253 8.81202 18.6168 8.2286 19.8049 7.99223C20.9931 7.75586 22.2247 7.87715 23.344 8.34078C24.4632 8.8044 25.4199 9.58953 26.0929 10.5969C26.7659 11.6042 27.1251 12.7885 27.125 14Z" fill="#0E0E0E"/>
</svg>
