<svg xmlns="http://www.w3.org/2000/svg" xmlns:xlink="http://www.w3.org/1999/xlink" width="500" zoomAndPan="magnify" viewBox="0 0 375 374.999991" height="500" preserveAspectRatio="xMidYMid meet" version="1.0"><defs><g/><clipPath id="49fa5d8da6"><path d="M 16.136719 77.226562 L 151.136719 77.226562 L 151.136719 152.976562 L 16.136719 152.976562 Z M 16.136719 77.226562 " clip-rule="nonzero"/></clipPath><clipPath id="550d3c8c72"><path d="M 16.136719 77.226562 L 151.136719 77.226562 L 151.136719 152.976562 L 16.136719 152.976562 Z M 16.136719 77.226562 " clip-rule="nonzero"/></clipPath><clipPath id="6358957d1d"><path d="M 258.214844 200 L 348 200 L 348 239.1875 L 258.214844 239.1875 Z M 258.214844 200 " clip-rule="nonzero"/></clipPath><clipPath id="f33b3b5f7d"><path d="M 272 182.9375 L 335 182.9375 L 335 202 L 272 202 Z M 272 182.9375 " clip-rule="nonzero"/></clipPath><clipPath id="522495f454"><path d="M 258.214844 200 L 348 200 L 348 239.1875 L 258.214844 239.1875 Z M 258.214844 200 " clip-rule="nonzero"/></clipPath><clipPath id="4722893e54"><path d="M 272 182.9375 L 335 182.9375 L 335 202 L 272 202 Z M 272 182.9375 " clip-rule="nonzero"/></clipPath><clipPath id="88c4b46509"><path d="M 258.214844 200 L 348 200 L 348 239.1875 L 258.214844 239.1875 Z M 258.214844 200 " clip-rule="nonzero"/></clipPath><clipPath id="3966179a9a"><path d="M 272 182.9375 L 335 182.9375 L 335 202 L 272 202 Z M 272 182.9375 " clip-rule="nonzero"/></clipPath><clipPath id="82a5285ccc"><path d="M 258.214844 200 L 348 200 L 348 239.1875 L 258.214844 239.1875 Z M 258.214844 200 " clip-rule="nonzero"/></clipPath><clipPath id="e6eef0fbe7"><path d="M 272 182.9375 L 335 182.9375 L 335 202 L 272 202 Z M 272 182.9375 " clip-rule="nonzero"/></clipPath><clipPath id="a646811b39"><path d="M 258.214844 200 L 348 200 L 348 239.1875 L 258.214844 239.1875 Z M 258.214844 200 " clip-rule="nonzero"/></clipPath><clipPath id="2d06aed763"><path d="M 272 182.9375 L 335 182.9375 L 335 202 L 272 202 Z M 272 182.9375 " clip-rule="nonzero"/></clipPath><clipPath id="b98f69f26b"><path d="M 258.214844 200 L 348 200 L 348 239.0625 L 258.214844 239.0625 Z M 258.214844 200 " clip-rule="nonzero"/></clipPath><clipPath id="8525cfd7fc"><path d="M 272 182.8125 L 335 182.8125 L 335 202 L 272 202 Z M 272 182.8125 " clip-rule="nonzero"/></clipPath><clipPath id="63c4a882ec"><path d="M 120.355469 149 L 156.765625 149 L 156.765625 182.539062 L 120.355469 182.539062 Z M 120.355469 149 " clip-rule="nonzero"/></clipPath></defs><rect x="-37.5" width="450" fill="#ffffff" y="-37.499999" height="449.999989" fill-opacity="1"/><rect x="-37.5" width="450" fill="#ffffff" y="-37.499999" height="449.999989" fill-opacity="1"/><g clip-path="url(#49fa5d8da6)"><path fill="#000000" d="M 24.554688 152.960938 C 22.238281 152.960938 19.953125 152.503906 18.289062 150.761719 C 16.453125 148.847656 16.136719 145.585938 17.519531 142.832031 C 18.851562 140.167969 21.394531 138.363281 23.1875 137.234375 C 28.972656 133.605469 35.730469 131.957031 42.269531 130.363281 C 50.753906 128.296875 58.769531 126.339844 65.011719 120.449219 C 67.753906 117.859375 68.804688 115.4375 69.820312 113.089844 C 70.875 110.648438 71.875 108.34375 74.660156 106.429688 C 76.019531 105.496094 77.539062 104.828125 79.023438 104.402344 C 79.03125 104.257812 79.039062 104.113281 79.046875 103.972656 C 79.199219 101.652344 80.457031 98.03125 82.789062 93.207031 C 83.109375 92.546875 83.496094 91.867188 83.871094 91.210938 C 84.984375 89.253906 86.136719 87.226562 85.882812 85.160156 C 85.507812 82.097656 82.429688 78.960938 79.542969 78.710938 C 77.539062 78.539062 75.367188 79.578125 73.734375 81.496094 C 72.199219 83.300781 71.519531 85.488281 71.957031 87.203125 C 72.402344 88.933594 73.902344 90.074219 75.082031 90.722656 C 75.390625 90.894531 75.503906 91.28125 75.335938 91.585938 C 75.164062 91.894531 74.777344 92.007812 74.46875 91.835938 C 73.066406 91.066406 71.277344 89.691406 70.722656 87.519531 C 70.175781 85.378906 70.9375 82.820312 72.761719 80.671875 C 74.664062 78.441406 77.238281 77.234375 79.65625 77.441406 C 81.382812 77.59375 83.144531 78.511719 84.609375 80.03125 C 86.015625 81.484375 86.941406 83.300781 87.148438 85.007812 C 87.453125 87.488281 86.136719 89.800781 84.976562 91.839844 C 84.597656 92.507812 84.242188 93.136719 83.9375 93.761719 C 81.679688 98.4375 80.460938 101.898438 80.320312 104.054688 C 80.320312 104.066406 80.320312 104.074219 80.316406 104.085938 C 81.992188 103.753906 83.542969 103.730469 84.65625 103.976562 C 85.617188 104.1875 86.277344 104.585938 86.613281 105.160156 C 87.34375 106.402344 86.492188 108.359375 85.449219 109.78125 C 84.429688 111.167969 82.859375 112.535156 81.503906 112.226562 C 80.480469 111.988281 79.753906 110.855469 79.34375 108.855469 C 79.15625 107.925781 79.042969 106.832031 79.015625 105.734375 C 77.761719 106.132812 76.496094 106.710938 75.382812 107.476562 C 72.898438 109.183594 72.015625 111.226562 70.992188 113.59375 C 69.972656 115.945312 68.820312 118.605469 65.890625 121.371094 C 59.398438 127.496094 50.84375 129.582031 42.570312 131.601562 C 36.132812 133.167969 29.476562 134.792969 23.867188 138.3125 C 22.203125 139.359375 19.847656 141.023438 18.660156 143.402344 C 17.722656 145.269531 17.496094 148.09375 19.210938 149.882812 C 21.4375 152.210938 25.179688 151.769531 28.480469 151.382812 C 29.328125 151.28125 30.125 151.1875 30.882812 151.140625 C 78.152344 148.152344 126.375 148.847656 173.011719 149.515625 C 184.503906 149.679688 196.382812 149.851562 208.054688 149.964844 C 213.742188 150.019531 219.632812 149.941406 225.328125 149.871094 C 239.3125 149.691406 253.777344 149.507812 267.539062 151.160156 C 267.890625 151.203125 268.140625 151.519531 268.097656 151.867188 C 268.054688 152.21875 267.738281 152.464844 267.386719 152.425781 C 253.707031 150.78125 239.289062 150.964844 225.34375 151.144531 C 219.640625 151.214844 213.746094 151.289062 208.042969 151.234375 C 196.367188 151.125 184.484375 150.953125 172.992188 150.789062 C 126.382812 150.117188 78.183594 149.425781 30.964844 152.410156 C 30.242188 152.453125 29.457031 152.546875 28.628906 152.644531 C 27.347656 152.796875 25.945312 152.960938 24.554688 152.960938 Z M 80.285156 105.394531 C 80.296875 106.519531 80.40625 107.671875 80.59375 108.601562 C 80.925781 110.234375 81.429688 110.902344 81.789062 110.984375 C 82.292969 111.097656 83.414062 110.398438 84.421875 109.027344 C 85.5 107.558594 85.789062 106.273438 85.515625 105.804688 C 85.371094 105.558594 84.957031 105.347656 84.382812 105.21875 C 83.339844 104.988281 81.863281 105.042969 80.285156 105.394531 Z M 80.285156 105.394531 " fill-opacity="1" fill-rule="nonzero"/></g><g fill="#000000" fill-opacity="1"><g transform="translate(45.44092, 237.013063)"><g><path d="M -8.015625 -4.875 C -8.015625 -3.0625 -6.691406 -2.15625 -4.046875 -2.15625 C -1.398438 -2.15625 1.421875 -2.851562 4.421875 -4.25 C 7.421875 -5.65625 10.394531 -7.429688 13.34375 -9.578125 C 16.289062 -11.734375 19.140625 -14.09375 21.890625 -16.65625 C 24.648438 -19.21875 27.160156 -21.65625 29.421875 -23.96875 L 35.125 -30.09375 C 36.664062 -31.851562 37.710938 -33.007812 38.265625 -33.5625 L 39.921875 -32.15625 C 39.316406 -31.550781 38.203125 -30.335938 36.578125 -28.515625 C 34.953125 -26.691406 32.96875 -24.597656 30.625 -22.234375 C 28.28125 -19.867188 25.660156 -17.363281 22.765625 -14.71875 C 19.878906 -12.070312 16.863281 -9.644531 13.71875 -7.4375 C 6.394531 -2.363281 -0.0195312 0.171875 -5.53125 0.171875 C -7.851562 0.171875 -9.769531 -0.460938 -11.28125 -1.734375 C -12.800781 -3.003906 -13.5625 -4.367188 -13.5625 -5.828125 C -13.5625 -7.285156 -13.488281 -8.453125 -13.34375 -9.328125 C -13.207031 -10.210938 -12.914062 -11.21875 -12.46875 -12.34375 C -12.03125 -13.476562 -11.398438 -14.800781 -10.578125 -16.3125 C -9.753906 -17.832031 -8.65625 -19.671875 -7.28125 -21.828125 L 5.375 -40.5 L 69.265625 -131.84375 C 73.234375 -131.289062 77.0625 -131.289062 80.75 -131.84375 C 28.1875 -58.769531 0.96875 -20.84375 -0.90625 -18.0625 C -2.78125 -15.28125 -4.15625 -13.1875 -5.03125 -11.78125 C -5.914062 -10.375 -6.582031 -9.226562 -7.03125 -8.34375 C -7.6875 -7.019531 -8.015625 -5.863281 -8.015625 -4.875 Z M -8.015625 -4.875 "/></g></g></g><g clip-path="url(#550d3c8c72)"><path fill="#000000" d="M 24.554688 152.960938 C 22.238281 152.960938 19.953125 152.503906 18.289062 150.761719 C 16.453125 148.847656 16.136719 145.585938 17.519531 142.832031 C 18.851562 140.167969 21.394531 138.363281 23.1875 137.234375 C 28.972656 133.605469 35.730469 131.957031 42.269531 130.363281 C 50.753906 128.296875 58.769531 126.339844 65.011719 120.449219 C 67.753906 117.859375 68.804688 115.4375 69.820312 113.089844 C 70.875 110.648438 71.875 108.34375 74.660156 106.429688 C 76.019531 105.496094 77.539062 104.828125 79.023438 104.402344 C 79.03125 104.257812 79.039062 104.113281 79.046875 103.972656 C 79.199219 101.652344 80.457031 98.03125 82.789062 93.207031 C 83.109375 92.546875 83.496094 91.867188 83.871094 91.210938 C 84.984375 89.253906 86.136719 87.226562 85.882812 85.160156 C 85.507812 82.097656 82.429688 78.960938 79.542969 78.710938 C 77.539062 78.539062 75.367188 79.578125 73.734375 81.496094 C 72.199219 83.300781 71.519531 85.488281 71.957031 87.203125 C 72.402344 88.933594 73.902344 90.074219 75.082031 90.722656 C 75.390625 90.894531 75.503906 91.28125 75.335938 91.585938 C 75.164062 91.894531 74.777344 92.007812 74.46875 91.835938 C 73.066406 91.066406 71.277344 89.691406 70.722656 87.519531 C 70.175781 85.378906 70.9375 82.820312 72.761719 80.671875 C 74.664062 78.441406 77.238281 77.234375 79.65625 77.441406 C 81.382812 77.59375 83.144531 78.511719 84.609375 80.03125 C 86.015625 81.484375 86.941406 83.300781 87.148438 85.007812 C 87.453125 87.488281 86.136719 89.800781 84.976562 91.839844 C 84.597656 92.507812 84.242188 93.136719 83.9375 93.761719 C 81.679688 98.4375 80.460938 101.898438 80.320312 104.054688 C 80.320312 104.066406 80.320312 104.074219 80.316406 104.085938 C 81.992188 103.753906 83.542969 103.730469 84.65625 103.976562 C 85.617188 104.1875 86.277344 104.585938 86.613281 105.160156 C 87.34375 106.402344 86.492188 108.359375 85.449219 109.78125 C 84.429688 111.167969 82.859375 112.535156 81.503906 112.226562 C 80.480469 111.988281 79.753906 110.855469 79.34375 108.855469 C 79.15625 107.925781 79.042969 106.832031 79.015625 105.734375 C 77.761719 106.132812 76.496094 106.710938 75.382812 107.476562 C 72.898438 109.183594 72.015625 111.226562 70.992188 113.59375 C 69.972656 115.945312 68.820312 118.605469 65.890625 121.371094 C 59.398438 127.496094 50.84375 129.582031 42.570312 131.601562 C 36.132812 133.167969 29.476562 134.792969 23.867188 138.3125 C 22.203125 139.359375 19.847656 141.023438 18.660156 143.402344 C 17.722656 145.269531 17.496094 148.09375 19.210938 149.882812 C 21.4375 152.210938 25.179688 151.769531 28.480469 151.382812 C 29.328125 151.28125 30.125 151.1875 30.882812 151.140625 C 78.152344 148.152344 126.375 148.847656 173.011719 149.515625 C 184.503906 149.679688 196.382812 149.851562 208.054688 149.964844 C 213.742188 150.019531 219.632812 149.941406 225.328125 149.871094 C 239.3125 149.691406 253.777344 149.507812 267.539062 151.160156 C 267.890625 151.203125 268.140625 151.519531 268.097656 151.867188 C 268.054688 152.21875 267.738281 152.464844 267.386719 152.425781 C 253.707031 150.78125 239.289062 150.964844 225.34375 151.144531 C 219.640625 151.214844 213.746094 151.289062 208.042969 151.234375 C 196.367188 151.125 184.484375 150.953125 172.992188 150.789062 C 126.382812 150.117188 78.183594 149.425781 30.964844 152.410156 C 30.242188 152.453125 29.457031 152.546875 28.628906 152.644531 C 27.347656 152.796875 25.945312 152.960938 24.554688 152.960938 Z M 80.285156 105.394531 C 80.296875 106.519531 80.40625 107.671875 80.59375 108.601562 C 80.925781 110.234375 81.429688 110.902344 81.789062 110.984375 C 82.292969 111.097656 83.414062 110.398438 84.421875 109.027344 C 85.5 107.558594 85.789062 106.273438 85.515625 105.804688 C 85.371094 105.558594 84.957031 105.347656 84.382812 105.21875 C 83.339844 104.988281 81.863281 105.042969 80.285156 105.394531 Z M 80.285156 105.394531 " fill-opacity="1" fill-rule="nonzero"/><path fill="#000000" d="M 24.554688 152.960938 C 22.238281 152.960938 19.953125 152.503906 18.289062 150.761719 C 16.453125 148.847656 16.136719 145.585938 17.519531 142.832031 C 18.851562 140.167969 21.394531 138.363281 23.1875 137.234375 C 28.972656 133.605469 35.730469 131.957031 42.269531 130.363281 C 50.753906 128.296875 58.769531 126.339844 65.011719 120.449219 C 67.753906 117.859375 68.804688 115.4375 69.820312 113.089844 C 70.875 110.648438 71.875 108.34375 74.660156 106.429688 C 76.019531 105.496094 77.539062 104.828125 79.023438 104.402344 C 79.03125 104.257812 79.039062 104.113281 79.046875 103.972656 C 79.199219 101.652344 80.457031 98.03125 82.789062 93.207031 C 83.109375 92.546875 83.496094 91.867188 83.871094 91.210938 C 84.984375 89.253906 86.136719 87.226562 85.882812 85.160156 C 85.507812 82.097656 82.429688 78.960938 79.542969 78.710938 C 77.539062 78.539062 75.367188 79.578125 73.734375 81.496094 C 72.199219 83.300781 71.519531 85.488281 71.957031 87.203125 C 72.402344 88.933594 73.902344 90.074219 75.082031 90.722656 C 75.390625 90.894531 75.503906 91.28125 75.335938 91.585938 C 75.164062 91.894531 74.777344 92.007812 74.46875 91.835938 C 73.066406 91.066406 71.277344 89.691406 70.722656 87.519531 C 70.175781 85.378906 70.9375 82.820312 72.761719 80.671875 C 74.664062 78.441406 77.238281 77.234375 79.65625 77.441406 C 81.382812 77.59375 83.144531 78.511719 84.609375 80.03125 C 86.015625 81.484375 86.941406 83.300781 87.148438 85.007812 C 87.453125 87.488281 86.136719 89.800781 84.976562 91.839844 C 84.597656 92.507812 84.242188 93.136719 83.9375 93.761719 C 81.679688 98.4375 80.460938 101.898438 80.320312 104.054688 C 80.320312 104.066406 80.320312 104.074219 80.316406 104.085938 C 81.992188 103.753906 83.542969 103.730469 84.65625 103.976562 C 85.617188 104.1875 86.277344 104.585938 86.613281 105.160156 C 87.34375 106.402344 86.492188 108.359375 85.449219 109.78125 C 84.429688 111.167969 82.859375 112.535156 81.503906 112.226562 C 80.480469 111.988281 79.753906 110.855469 79.34375 108.855469 C 79.15625 107.925781 79.042969 106.832031 79.015625 105.734375 C 77.761719 106.132812 76.496094 106.710938 75.382812 107.476562 C 72.898438 109.183594 72.015625 111.226562 70.992188 113.59375 C 69.972656 115.945312 68.820312 118.605469 65.890625 121.371094 C 59.398438 127.496094 50.84375 129.582031 42.570312 131.601562 C 36.132812 133.167969 29.476562 134.792969 23.867188 138.3125 C 22.203125 139.359375 19.847656 141.023438 18.660156 143.402344 C 17.722656 145.269531 17.496094 148.09375 19.210938 149.882812 C 21.4375 152.210938 25.179688 151.769531 28.480469 151.382812 C 29.328125 151.28125 30.125 151.1875 30.882812 151.140625 C 78.152344 148.152344 126.375 148.847656 173.011719 149.515625 C 184.503906 149.679688 196.382812 149.851562 208.054688 149.964844 C 213.742188 150.019531 219.632812 149.941406 225.328125 149.871094 C 239.3125 149.691406 253.777344 149.507812 267.539062 151.160156 C 267.890625 151.203125 268.140625 151.519531 268.097656 151.867188 C 268.054688 152.21875 267.738281 152.464844 267.386719 152.425781 C 253.707031 150.78125 239.289062 150.964844 225.34375 151.144531 C 219.640625 151.214844 213.746094 151.289062 208.042969 151.234375 C 196.367188 151.125 184.484375 150.953125 172.992188 150.789062 C 126.382812 150.117188 78.183594 149.425781 30.964844 152.410156 C 30.242188 152.453125 29.457031 152.546875 28.628906 152.644531 C 27.347656 152.796875 25.945312 152.960938 24.554688 152.960938 Z M 80.285156 105.394531 C 80.296875 106.519531 80.40625 107.671875 80.59375 108.601562 C 80.925781 110.234375 81.429688 110.902344 81.789062 110.984375 C 82.292969 111.097656 83.414062 110.398438 84.421875 109.027344 C 85.5 107.558594 85.789062 106.273438 85.515625 105.804688 C 85.371094 105.558594 84.957031 105.347656 84.382812 105.21875 C 83.339844 104.988281 81.863281 105.042969 80.285156 105.394531 Z M 80.285156 105.394531 " fill-opacity="1" fill-rule="nonzero"/></g><g fill="#000000" fill-opacity="1"><g transform="translate(74.858808, 237.829091)"><g><path d="M -6.265625 -1.046875 C -7.253906 -1.222656 -8.351562 -1.3125 -9.5625 -1.3125 C -11.65625 -1.3125 -13.378906 -1.128906 -14.734375 -0.765625 L 46.140625 -87.71875 C 48.597656 -87.351562 51.148438 -87.351562 53.796875 -87.71875 L -0.765625 -11.984375 L -0.5 -11.390625 C 2.289062 -14.609375 4.878906 -17.46875 7.265625 -19.96875 L 13.8125 -26.5625 C 17.550781 -30.195312 20.570312 -32.765625 22.875 -34.265625 C 26.363281 -36.535156 29.664062 -37.671875 32.78125 -37.671875 C 36.039062 -37.671875 38.09375 -36.5 38.9375 -34.15625 C 40.59375 -29.601562 35.441406 -20.910156 23.484375 -8.078125 L 21.34375 -5.71875 C 20.164062 -4.394531 19.578125 -3.382812 19.578125 -2.6875 C 19.578125 -2.320312 19.976562 -2.019531 20.78125 -1.78125 C 21.59375 -1.550781 22.734375 -1.4375 24.203125 -1.4375 C 25.671875 -1.4375 27.394531 -1.898438 29.375 -2.828125 C 31.351562 -3.765625 33.273438 -4.945312 35.140625 -6.375 C 37.015625 -7.8125 38.796875 -9.390625 40.484375 -11.109375 C 42.171875 -12.828125 43.679688 -14.457031 45.015625 -16 C 46.359375 -17.539062 47.488281 -18.894531 48.40625 -20.0625 C 49.320312 -21.238281 49.941406 -21.992188 50.265625 -22.328125 L 51.484375 -21.390625 C 51.117188 -20.992188 50.445312 -20.1875 49.46875 -18.96875 C 48.5 -17.757812 47.304688 -16.359375 45.890625 -14.765625 C 44.484375 -13.171875 42.890625 -11.492188 41.109375 -9.734375 C 39.328125 -7.972656 37.429688 -6.378906 35.421875 -4.953125 C 30.796875 -1.578125 26.597656 0.109375 22.828125 0.109375 C 19.816406 0.109375 17.597656 -0.710938 16.171875 -2.359375 C 15.734375 -2.878906 15.515625 -3.484375 15.515625 -4.171875 C 15.515625 -4.867188 15.613281 -5.664062 15.8125 -6.5625 C 16.007812 -7.46875 16.515625 -8.617188 17.328125 -10.015625 C 19.191406 -13.160156 21.664062 -16.46875 24.75 -19.9375 C 27.832031 -23.40625 29.867188 -25.757812 30.859375 -27 C 31.847656 -28.25 32.632812 -29.332031 33.21875 -30.25 C 34.320312 -32.007812 34.875 -33.363281 34.875 -34.3125 C 34.875 -35.632812 34.007812 -36.296875 32.28125 -36.296875 C 29.96875 -36.296875 27.3125 -35.269531 24.3125 -33.21875 C 17.007812 -28.34375 8.503906 -19.851562 -1.203125 -7.75 Z M -6.265625 -1.046875 "/></g></g></g><g fill="#000000" fill-opacity="1"><g transform="translate(124.740317, 237.829091)"><g><path d="M 21.25 -4.75 C 18.925781 -3.269531 16.414062 -2.050781 13.71875 -1.09375 C 11.03125 -0.144531 8.472656 0.328125 6.046875 0.328125 C 3.628906 0.328125 1.785156 0.0820312 0.515625 -0.40625 C -0.742188 -0.90625 -1.773438 -1.59375 -2.578125 -2.46875 C -6.023438 -6.207031 -6.007812 -11.726562 -2.53125 -19.03125 C -1.03125 -22.257812 1.238281 -25.203125 4.28125 -27.859375 C 7.332031 -30.515625 10.007812 -32.503906 12.3125 -33.828125 C 16.789062 -36.390625 20.992188 -37.671875 24.921875 -37.671875 C 28.804688 -37.671875 30.835938 -36.460938 31.015625 -34.046875 C 31.273438 -30.117188 26.507812 -25.847656 16.71875 -21.234375 C 13.125 -19.546875 8.597656 -17.800781 3.140625 -16 C 0.972656 -12.476562 -0.109375 -9.609375 -0.109375 -7.390625 C -0.109375 -5.171875 0.46875 -3.59375 1.625 -2.65625 C 2.78125 -1.726562 4.46875 -1.265625 6.6875 -1.265625 C 8.90625 -1.265625 11.304688 -1.738281 13.890625 -2.6875 C 16.472656 -3.644531 18.890625 -4.859375 21.140625 -6.328125 C 23.398438 -7.796875 25.445312 -9.390625 27.28125 -11.109375 C 29.113281 -12.828125 30.734375 -14.472656 32.140625 -16.046875 C 33.554688 -17.628906 34.710938 -19 35.609375 -20.15625 C 36.503906 -21.3125 37.117188 -22.035156 37.453125 -22.328125 L 38.609375 -21.390625 C 38.128906 -20.992188 37.40625 -20.171875 36.4375 -18.921875 C 35.46875 -17.671875 34.238281 -16.25 32.75 -14.65625 C 31.269531 -13.0625 29.566406 -11.382812 27.640625 -9.625 C 25.710938 -7.863281 23.582031 -6.238281 21.25 -4.75 Z M 4.40625 -17.9375 C 15.476562 -21.820312 22.609375 -25.6875 25.796875 -29.53125 C 26.859375 -30.8125 27.390625 -32.0625 27.390625 -33.28125 C 27.390625 -35.332031 26.4375 -36.359375 24.53125 -36.359375 C 21.15625 -36.359375 16.9375 -33.40625 11.875 -27.5 C 8.351562 -23.394531 5.863281 -20.207031 4.40625 -17.9375 Z M 4.40625 -17.9375 "/></g></g></g><g fill="#000000" fill-opacity="1"><g transform="translate(161.807717, 237.829091)"><g><path d="M -5 -3.84375 C -5 -2.15625 -3.914062 -1.3125 -1.75 -1.3125 C 0.40625 -1.3125 2.789062 -1.867188 5.40625 -2.984375 C 8.03125 -4.109375 10.609375 -5.570312 13.140625 -7.375 C 18.015625 -10.78125 22.507812 -15.03125 26.625 -20.125 C 33.070312 -27.5 36.9375 -31.957031 38.21875 -33.5 C 38.21875 -33.5 39.207031 -34.726562 41.1875 -37.1875 C 42.625 -36.925781 43.671875 -36.796875 44.328125 -36.796875 C 46.203125 -36.796875 47.613281 -36.867188 48.5625 -37.015625 L 29.421875 -13.421875 L 19.6875 -0.390625 L 11.328125 10.5 C 20.785156 5.957031 28.046875 1.429688 33.109375 -3.078125 C 36.410156 -6.015625 39.507812 -9.242188 42.40625 -12.765625 L 50.328125 -22.328125 L 51.484375 -21.390625 L 44.546875 -13.203125 C 40.441406 -8.359375 37.015625 -4.742188 34.265625 -2.359375 C 31.515625 0.015625 29.003906 1.972656 26.734375 3.515625 C 22.398438 6.378906 16.625 9.515625 9.40625 12.921875 C 2.582031 21.460938 -2.554688 27.398438 -6.015625 30.734375 C -9.484375 34.078125 -12.222656 36.453125 -14.234375 37.859375 C -16.253906 39.273438 -18.21875 40.382812 -20.125 41.1875 C -23.351562 42.582031 -27.1875 43.28125 -31.625 43.28125 C -33.863281 43.28125 -35.347656 42.492188 -36.078125 40.921875 C -36.296875 40.484375 -36.40625 39.785156 -36.40625 38.828125 C -36.40625 37.878906 -35.789062 36.550781 -34.5625 34.84375 C -33.332031 33.132812 -31.234375 31.238281 -28.265625 29.15625 C -22.328125 24.96875 -12.0625 19.796875 2.53125 13.640625 L 24.921875 -14.734375 L 24.3125 -14.953125 C 20.820312 -11.210938 17.265625 -8.242188 13.640625 -6.046875 C 6.859375 -1.941406 1.429688 0.109375 -2.640625 0.109375 C -4.691406 0.109375 -6.226562 -0.300781 -7.25 -1.125 C -8.28125 -1.945312 -8.796875 -2.953125 -8.796875 -4.140625 C -8.796875 -5.335938 -8.6875 -6.421875 -8.46875 -7.390625 C -8.25 -8.367188 -7.8125 -9.535156 -7.15625 -10.890625 C -5.789062 -13.492188 -3.203125 -17.472656 0.609375 -22.828125 C 2.296875 -24.910156 4.328125 -27.164062 6.703125 -29.59375 L 14.359375 -37.34375 L 16.9375 -37.0625 C 17.519531 -37.03125 18.425781 -37.015625 19.65625 -37.015625 C 20.882812 -37.015625 21.992188 -37.070312 22.984375 -37.1875 C 19.722656 -34.25 17.285156 -31.863281 15.671875 -30.03125 L 11.765625 -25.625 C 3.660156 -16.644531 -0.898438 -11.40625 -1.921875 -9.90625 C -3.972656 -6.96875 -5 -4.945312 -5 -3.84375 Z M 0.609375 16 C -17.835938 23.882812 -28.929688 30.15625 -32.671875 34.8125 C -33.992188 36.46875 -34.65625 38.0625 -34.65625 39.59375 C -34.65625 40 -34.40625 40.46875 -33.90625 41 C -33.414062 41.53125 -32.363281 41.796875 -30.75 41.796875 C -29.132812 41.796875 -27.34375 41.4375 -25.375 40.71875 C -23.414062 40.007812 -21.226562 38.71875 -18.8125 36.84375 C -14.375 33.320312 -7.898438 26.375 0.609375 16 Z M 0.609375 16 "/></g></g></g><g fill="#000000" fill-opacity="1"><g transform="translate(211.799218, 237.829091)"><g><path d="M -5 -3.84375 C -5 -2.15625 -3.914062 -1.3125 -1.75 -1.3125 C 0.40625 -1.3125 2.789062 -1.867188 5.40625 -2.984375 C 8.03125 -4.109375 10.609375 -5.570312 13.140625 -7.375 C 18.015625 -10.78125 22.507812 -15.03125 26.625 -20.125 C 33.070312 -27.5 36.9375 -31.957031 38.21875 -33.5 C 38.21875 -33.5 39.207031 -34.726562 41.1875 -37.1875 C 42.625 -36.925781 43.671875 -36.796875 44.328125 -36.796875 C 46.203125 -36.796875 47.613281 -36.867188 48.5625 -37.015625 L 29.421875 -13.421875 L 19.6875 -0.390625 L 11.328125 10.5 C 20.785156 5.957031 28.046875 1.429688 33.109375 -3.078125 C 36.410156 -6.015625 39.507812 -9.242188 42.40625 -12.765625 L 50.328125 -22.328125 L 51.484375 -21.390625 L 44.546875 -13.203125 C 40.441406 -8.359375 37.015625 -4.742188 34.265625 -2.359375 C 31.515625 0.015625 29.003906 1.972656 26.734375 3.515625 C 22.398438 6.378906 16.625 9.515625 9.40625 12.921875 C 2.582031 21.460938 -2.554688 27.398438 -6.015625 30.734375 C -9.484375 34.078125 -12.222656 36.453125 -14.234375 37.859375 C -16.253906 39.273438 -18.21875 40.382812 -20.125 41.1875 C -23.351562 42.582031 -27.1875 43.28125 -31.625 43.28125 C -33.863281 43.28125 -35.347656 42.492188 -36.078125 40.921875 C -36.296875 40.484375 -36.40625 39.785156 -36.40625 38.828125 C -36.40625 37.878906 -35.789062 36.550781 -34.5625 34.84375 C -33.332031 33.132812 -31.234375 31.238281 -28.265625 29.15625 C -22.328125 24.96875 -12.0625 19.796875 2.53125 13.640625 L 24.921875 -14.734375 L 24.3125 -14.953125 C 20.820312 -11.210938 17.265625 -8.242188 13.640625 -6.046875 C 6.859375 -1.941406 1.429688 0.109375 -2.640625 0.109375 C -4.691406 0.109375 -6.226562 -0.300781 -7.25 -1.125 C -8.28125 -1.945312 -8.796875 -2.953125 -8.796875 -4.140625 C -8.796875 -5.335938 -8.6875 -6.421875 -8.46875 -7.390625 C -8.25 -8.367188 -7.8125 -9.535156 -7.15625 -10.890625 C -5.789062 -13.492188 -3.203125 -17.472656 0.609375 -22.828125 C 2.296875 -24.910156 4.328125 -27.164062 6.703125 -29.59375 L 14.359375 -37.34375 L 16.9375 -37.0625 C 17.519531 -37.03125 18.425781 -37.015625 19.65625 -37.015625 C 20.882812 -37.015625 21.992188 -37.070312 22.984375 -37.1875 C 19.722656 -34.25 17.285156 -31.863281 15.671875 -30.03125 L 11.765625 -25.625 C 3.660156 -16.644531 -0.898438 -11.40625 -1.921875 -9.90625 C -3.972656 -6.96875 -5 -4.945312 -5 -3.84375 Z M 0.609375 16 C -17.835938 23.882812 -28.929688 30.15625 -32.671875 34.8125 C -33.992188 36.46875 -34.65625 38.0625 -34.65625 39.59375 C -34.65625 40 -34.40625 40.46875 -33.90625 41 C -33.414062 41.53125 -32.363281 41.796875 -30.75 41.796875 C -29.132812 41.796875 -27.34375 41.4375 -25.375 40.71875 C -23.414062 40.007812 -21.226562 38.71875 -18.8125 36.84375 C -14.375 33.320312 -7.898438 26.375 0.609375 16 Z M 0.609375 16 "/></g></g></g><g fill="#000000" fill-opacity="1"><g transform="translate(305.282563, 174.009458)"><g><path d="M 1.75 -8.5 C 1.582031 -9.3125 1.414062 -9.910156 1.25 -10.296875 C 1.09375 -10.679688 0.890625 -10.945312 0.640625 -11.09375 L 0.671875 -11.390625 L 4.5625 -11.0625 L 4.53125 -10.765625 C 4.144531 -10.671875 3.953125 -10.4375 3.953125 -10.0625 C 3.960938 -9.695312 4.039062 -9.109375 4.1875 -8.296875 L 5.40625 -2.0625 L 9.203125 -10.671875 L 10.59375 -10.546875 L 12.859375 -1.515625 L 15.15625 -7.390625 C 15.445312 -8.160156 15.554688 -8.738281 15.484375 -9.125 C 15.421875 -9.507812 15.191406 -9.769531 14.796875 -9.90625 L 14.828125 -10.203125 L 17.25 -10 L 17.21875 -9.703125 C 16.875 -9.609375 16.582031 -9.382812 16.34375 -9.03125 C 16.101562 -8.6875 15.835938 -8.128906 15.546875 -7.359375 L 12.21875 1.03125 L 11.078125 0.921875 L 8.6875 -8.640625 L 4.6875 0.390625 L 3.515625 0.296875 Z M 1.75 -8.5 "/></g></g></g><g fill="#000000" fill-opacity="1"><g transform="translate(320.872935, 175.568822)"><g><path d="M 5.484375 2.703125 C 4.898438 2.441406 4.367188 2.078125 3.890625 1.609375 C 3.410156 1.148438 3.019531 0.601562 2.71875 -0.03125 C 2.425781 -0.664062 2.269531 -1.363281 2.25 -2.125 C 2.226562 -2.882812 2.40625 -3.6875 2.78125 -4.53125 C 3.175781 -5.425781 3.6875 -6.15625 4.3125 -6.71875 C 4.945312 -7.289062 5.640625 -7.707031 6.390625 -7.96875 C 7.148438 -8.238281 7.910156 -8.359375 8.671875 -8.328125 C 9.429688 -8.296875 10.148438 -8.128906 10.828125 -7.828125 C 11.773438 -7.410156 12.484375 -6.867188 12.953125 -6.203125 C 13.429688 -5.546875 13.707031 -4.859375 13.78125 -4.140625 C 13.851562 -3.429688 13.75 -2.769531 13.46875 -2.15625 L 5.578125 -5.6875 C 5.523438 -5.582031 5.46875 -5.472656 5.40625 -5.359375 C 5.34375 -5.253906 5.285156 -5.148438 5.234375 -5.046875 C 4.835938 -4.140625 4.65625 -3.25 4.6875 -2.375 C 4.726562 -1.507812 4.984375 -0.734375 5.453125 -0.046875 C 5.921875 0.628906 6.59375 1.160156 7.46875 1.546875 C 8.25 1.898438 9.003906 2.054688 9.734375 2.015625 C 10.472656 1.984375 11.164062 1.816406 11.8125 1.515625 L 11.90625 1.8125 C 11.363281 2.15625 10.75 2.457031 10.0625 2.71875 C 9.382812 2.988281 8.65625 3.144531 7.875 3.1875 C 7.09375 3.226562 6.296875 3.066406 5.484375 2.703125 Z M 5.734375 -5.96875 L 11.5 -3.390625 C 11.664062 -4.003906 11.71875 -4.601562 11.65625 -5.1875 C 11.59375 -5.769531 11.425781 -6.285156 11.15625 -6.734375 C 10.882812 -7.191406 10.507812 -7.53125 10.03125 -7.75 C 9.445312 -8.019531 8.882812 -8.097656 8.34375 -7.984375 C 7.8125 -7.867188 7.320312 -7.628906 6.875 -7.265625 C 6.4375 -6.898438 6.054688 -6.46875 5.734375 -5.96875 Z M 5.734375 -5.96875 "/></g></g></g><g fill="#000000" fill-opacity="1"><g transform="translate(331.807819, 180.415046)"><g><path d="M 7.09375 6.109375 C 6.625 5.710938 6.585938 5.285156 6.984375 4.828125 L 9.4375 1.984375 C 8.707031 2.492188 7.9375 2.890625 7.125 3.171875 C 6.320312 3.460938 5.535156 3.578125 4.765625 3.515625 C 3.992188 3.453125 3.304688 3.160156 2.703125 2.640625 C 2.078125 2.097656 1.695312 1.429688 1.5625 0.640625 C 1.4375 -0.148438 1.691406 -0.910156 2.328125 -1.640625 C 2.835938 -2.242188 3.4375 -2.570312 4.125 -2.625 C 4.8125 -2.6875 5.5625 -2.585938 6.375 -2.328125 C 7.195312 -2.066406 8.046875 -1.726562 8.921875 -1.3125 L 11.3125 -0.203125 C 12.039062 -1.066406 12.347656 -1.859375 12.234375 -2.578125 C 12.128906 -3.304688 11.753906 -3.953125 11.109375 -4.515625 C 10.628906 -4.921875 10.054688 -5.21875 9.390625 -5.40625 C 8.722656 -5.59375 7.941406 -5.609375 7.046875 -5.453125 L 7 -5.75 C 8.007812 -5.9375 9 -5.929688 9.96875 -5.734375 C 10.9375 -5.535156 11.8125 -5.097656 12.59375 -4.421875 C 13.632812 -3.515625 14.171875 -2.570312 14.203125 -1.59375 C 14.242188 -0.613281 13.804688 0.40625 12.890625 1.46875 L 10.015625 4.8125 C 9.484375 5.425781 9.128906 5.914062 8.953125 6.28125 C 8.785156 6.65625 8.804688 7.015625 9.015625 7.359375 L 8.8125 7.59375 Z M 4.453125 -0.859375 C 3.960938 -0.285156 3.773438 0.269531 3.890625 0.8125 C 4.015625 1.351562 4.273438 1.789062 4.671875 2.125 C 5.097656 2.488281 5.585938 2.679688 6.140625 2.703125 C 6.691406 2.734375 7.253906 2.640625 7.828125 2.421875 C 8.398438 2.210938 8.941406 1.9375 9.453125 1.59375 C 9.960938 1.25 10.382812 0.878906 10.71875 0.484375 L 11.109375 0.03125 L 8.8125 -1.03125 C 8.550781 -1.144531 8.238281 -1.265625 7.875 -1.390625 C 7.507812 -1.515625 7.117188 -1.601562 6.703125 -1.65625 C 6.296875 -1.707031 5.894531 -1.675781 5.5 -1.5625 C 5.101562 -1.445312 4.753906 -1.210938 4.453125 -0.859375 Z M 4.453125 -0.859375 "/></g></g></g><g fill="#000000" fill-opacity="1"><g transform="translate(340.796383, 188.299818)"><g><path d="M 0.359375 0.53125 L 0.625 0.359375 C 0.9375 0.597656 1.285156 0.65625 1.671875 0.53125 C 2.054688 0.414062 2.585938 0.128906 3.265625 -0.328125 L 7.640625 -3.234375 C 8.191406 -3.597656 8.507812 -3.90625 8.59375 -4.15625 C 8.6875 -4.40625 8.707031 -4.6875 8.65625 -5 L 8.921875 -5.171875 L 11.6875 -3.390625 L 11.65625 -3.109375 L 9.375 -1.59375 C 10.25 -1.75 11.109375 -1.65625 11.953125 -1.3125 C 12.441406 -1.113281 12.867188 -0.867188 13.234375 -0.578125 C 13.609375 -0.285156 13.945312 0.0820312 14.25 0.53125 C 14.46875 0.863281 14.613281 1.179688 14.6875 1.484375 C 14.757812 1.785156 14.691406 2.003906 14.484375 2.140625 C 14.347656 2.234375 14.148438 2.296875 13.890625 2.328125 C 13.628906 2.359375 13.363281 2.328125 13.09375 2.234375 C 12.832031 2.140625 12.601562 1.945312 12.40625 1.65625 C 12.226562 1.382812 12.054688 1.023438 11.890625 0.578125 C 11.722656 0.140625 11.535156 -0.445312 11.328125 -1.1875 C 10.960938 -1.289062 10.492188 -1.335938 9.921875 -1.328125 C 9.359375 -1.328125 8.832031 -1.1875 8.34375 -0.90625 L 4.5625 1.609375 C 3.882812 2.066406 3.414062 2.453125 3.15625 2.765625 C 2.894531 3.078125 2.816406 3.425781 2.921875 3.8125 L 2.65625 3.984375 Z M 0.359375 0.53125 "/></g></g></g><g fill="#000000" fill-opacity="1"><g transform="translate(346.49443, 196.845859)"><g><path d="M 0.21875 0.609375 L 0.515625 0.5 C 0.742188 0.8125 1.0625 0.957031 1.46875 0.9375 C 1.882812 0.914062 2.476562 0.769531 3.25 0.5 L 8.203125 -1.234375 C 8.828125 -1.453125 9.210938 -1.664062 9.359375 -1.875 C 9.515625 -2.09375 9.601562 -2.359375 9.625 -2.671875 L 9.921875 -2.78125 L 12.171875 -0.375 L 12.0625 -0.109375 L 9.46875 0.796875 C 10.363281 0.859375 11.175781 1.164062 11.90625 1.71875 C 12.320312 2.03125 12.675781 2.367188 12.96875 2.734375 C 13.257812 3.109375 13.492188 3.550781 13.671875 4.0625 C 13.796875 4.4375 13.859375 4.78125 13.859375 5.09375 C 13.859375 5.40625 13.738281 5.601562 13.5 5.6875 C 13.34375 5.738281 13.132812 5.75 12.875 5.71875 C 12.625 5.6875 12.375 5.59375 12.125 5.4375 C 11.882812 5.28125 11.707031 5.035156 11.59375 4.703125 C 11.488281 4.398438 11.410156 4.007812 11.359375 3.53125 C 11.316406 3.0625 11.285156 2.445312 11.265625 1.6875 C 10.929688 1.488281 10.488281 1.316406 9.9375 1.171875 C 9.394531 1.035156 8.847656 1.046875 8.296875 1.203125 L 4.015625 2.703125 C 3.242188 2.972656 2.691406 3.222656 2.359375 3.453125 C 2.023438 3.691406 1.863281 4.015625 1.875 4.421875 L 1.578125 4.53125 Z M 0.21875 0.609375 "/></g></g></g><g fill="#000000" fill-opacity="1"><g transform="translate(349.707105, 206.890626)"><g><path d="M 0.203125 2.578125 C 0.148438 2.222656 0.238281 1.894531 0.46875 1.59375 C 0.707031 1.289062 1.015625 1.113281 1.390625 1.0625 C 1.765625 1.007812 2.097656 1.097656 2.390625 1.328125 C 2.691406 1.554688 2.867188 1.847656 2.921875 2.203125 C 2.972656 2.566406 2.882812 2.894531 2.65625 3.1875 C 2.4375 3.488281 2.140625 3.664062 1.765625 3.71875 C 1.390625 3.769531 1.046875 3.679688 0.734375 3.453125 C 0.429688 3.234375 0.253906 2.941406 0.203125 2.578125 Z M 0.203125 2.578125 "/></g></g></g><g clip-path="url(#6358957d1d)"><path fill="#231f20" d="M 340.957031 239.035156 L 265.371094 239.035156 C 263.132812 239.035156 261.027344 238.058594 259.742188 236.421875 C 258.628906 235.003906 258.242188 233.292969 258.65625 231.597656 L 264.972656 205.648438 C 265.65625 202.851562 268.480469 200.820312 271.6875 200.820312 L 298.765625 200.820312 C 298.882812 200.820312 298.980469 200.914062 298.980469 201.03125 L 298.980469 207.894531 C 298.980469 209.96875 300.667969 211.65625 302.742188 211.65625 L 303.644531 211.65625 C 305.71875 211.65625 307.410156 209.96875 307.410156 207.894531 L 307.410156 201.03125 C 307.410156 200.914062 307.503906 200.820312 307.621094 200.820312 L 334.128906 200.820312 C 337.335938 200.820312 340.085938 202.761719 340.816406 205.546875 L 347.648438 231.5 C 348.09375 233.203125 347.730469 234.933594 346.621094 236.375 C 345.335938 238.039062 343.21875 239.035156 340.957031 239.035156 Z M 271.6875 201.246094 C 268.671875 201.246094 266.023438 203.140625 265.386719 205.75 L 259.070312 231.699219 C 258.6875 233.261719 259.046875 234.847656 260.074219 236.15625 C 261.28125 237.691406 263.261719 238.609375 265.371094 238.609375 L 340.957031 238.609375 C 343.085938 238.609375 345.078125 237.675781 346.285156 236.113281 C 347.3125 234.78125 347.648438 233.179688 347.234375 231.605469 L 340.40625 205.65625 C 339.722656 203.058594 337.140625 201.246094 334.128906 201.246094 L 307.835938 201.246094 L 307.835938 207.894531 C 307.835938 210.203125 305.953125 212.082031 303.644531 212.082031 L 302.742188 212.082031 C 300.433594 212.082031 298.554688 210.203125 298.554688 207.894531 L 298.554688 201.246094 Z M 271.6875 201.246094 " fill-opacity="1" fill-rule="nonzero"/></g><g clip-path="url(#f33b3b5f7d)"><path fill="#231f20" d="M 334.101562 201.246094 L 330.113281 201.246094 C 330.054688 201.246094 330 201.222656 329.957031 201.179688 C 329.917969 201.136719 329.898438 201.078125 329.902344 201.019531 C 329.925781 200.640625 329.9375 200.1875 329.9375 199.933594 C 329.9375 191.964844 318.042969 185.480469 303.421875 185.480469 C 288.804688 185.480469 276.910156 191.964844 276.910156 199.933594 C 276.910156 200.1875 276.921875 200.644531 276.945312 201.019531 C 276.949219 201.078125 276.929688 201.132812 276.890625 201.179688 C 276.847656 201.222656 276.792969 201.246094 276.734375 201.246094 L 273.097656 201.246094 C 272.984375 201.246094 272.890625 201.15625 272.886719 201.042969 C 272.867188 200.664062 272.859375 200.230469 272.859375 199.996094 C 272.859375 195.414062 276.074219 191.117188 281.910156 187.898438 C 287.707031 184.699219 295.410156 182.9375 303.597656 182.9375 C 311.789062 182.9375 319.492188 184.699219 325.289062 187.898438 C 331.125 191.117188 334.339844 195.414062 334.339844 199.996094 C 334.339844 200.230469 334.332031 200.664062 334.3125 201.042969 C 334.308594 201.15625 334.214844 201.246094 334.101562 201.246094 Z M 330.339844 200.820312 L 333.898438 200.820312 C 333.910156 200.503906 333.914062 200.179688 333.914062 199.996094 C 333.914062 190.824219 320.316406 183.363281 303.597656 183.363281 C 286.882812 183.363281 273.285156 190.824219 273.285156 199.996094 C 273.285156 200.179688 273.289062 200.503906 273.300781 200.820312 L 276.507812 200.820312 C 276.492188 200.492188 276.484375 200.144531 276.484375 199.933594 C 276.484375 195.9375 279.304688 192.1875 284.421875 189.378906 C 289.5 186.589844 296.25 185.054688 303.421875 185.054688 C 310.597656 185.054688 317.34375 186.589844 322.425781 189.378906 C 327.542969 192.1875 330.363281 195.9375 330.363281 199.933594 C 330.363281 200.144531 330.355469 200.492188 330.339844 200.820312 Z M 330.339844 200.820312 " fill-opacity="1" fill-rule="nonzero"/></g><path fill="#231f20" d="M 303.164062 209.726562 C 301.75 209.726562 300.601562 208.574219 300.601562 207.160156 L 300.601562 200.035156 C 300.601562 199.511719 301.027344 199.085938 301.550781 199.085938 L 304.777344 199.085938 C 305.300781 199.085938 305.726562 199.511719 305.726562 200.035156 L 305.726562 207.160156 C 305.726562 208.574219 304.578125 209.726562 303.164062 209.726562 Z M 301.550781 199.511719 C 301.261719 199.511719 301.027344 199.746094 301.027344 200.035156 L 301.027344 207.160156 C 301.027344 208.339844 301.984375 209.300781 303.164062 209.300781 C 304.34375 209.300781 305.300781 208.339844 305.300781 207.160156 L 305.300781 200.035156 C 305.300781 199.746094 305.066406 199.511719 304.777344 199.511719 Z M 301.550781 199.511719 " fill-opacity="1" fill-rule="nonzero"/><path fill="#231f20" d="M 303.164062 210.921875 C 301.238281 210.921875 299.675781 209.355469 299.675781 207.429688 L 299.675781 200.121094 C 299.675781 199.085938 300.515625 198.246094 301.550781 198.246094 L 304.777344 198.246094 C 305.8125 198.246094 306.652344 199.085938 306.652344 200.121094 L 306.652344 207.429688 C 306.652344 209.355469 305.089844 210.921875 303.164062 210.921875 Z M 301.550781 198.386719 C 300.59375 198.386719 299.816406 199.164062 299.816406 200.121094 L 299.816406 207.429688 C 299.816406 209.277344 301.316406 210.777344 303.164062 210.777344 C 305.011719 210.777344 306.511719 209.277344 306.511719 207.429688 L 306.511719 200.121094 C 306.511719 199.164062 305.734375 198.386719 304.777344 198.386719 Z M 301.550781 198.386719 " fill-opacity="1" fill-rule="nonzero"/><path fill="#231f20" d="M 303.613281 212.082031 L 302.710938 212.082031 C 300.402344 212.082031 298.523438 210.203125 298.523438 207.894531 L 298.523438 199.65625 C 298.523438 198.238281 299.679688 197.082031 301.097656 197.082031 L 305.230469 197.082031 C 306.648438 197.082031 307.804688 198.238281 307.804688 199.65625 L 307.804688 207.894531 C 307.804688 210.203125 305.925781 212.082031 303.613281 212.082031 Z M 301.097656 197.507812 C 299.914062 197.507812 298.949219 198.472656 298.949219 199.65625 L 298.949219 207.894531 C 298.949219 209.96875 300.636719 211.65625 302.710938 211.65625 L 303.613281 211.65625 C 305.691406 211.65625 307.378906 209.96875 307.378906 207.894531 L 307.378906 199.65625 C 307.378906 198.472656 306.414062 197.507812 305.230469 197.507812 Z M 301.097656 197.507812 " fill-opacity="1" fill-rule="nonzero"/><path fill="#231f20" d="M 314.59375 233.109375 L 291.734375 233.109375 C 288.277344 233.109375 285.238281 230.554688 284.5 227.042969 C 283.476562 222.136719 282.253906 216.035156 282.253906 214.828125 C 282.253906 214.710938 282.347656 214.613281 282.464844 214.613281 L 323.863281 214.613281 C 323.980469 214.613281 324.074219 214.710938 324.074219 214.828125 C 324.074219 216.035156 322.851562 222.136719 321.828125 227.042969 C 321.089844 230.554688 318.050781 233.109375 314.59375 233.109375 Z M 282.6875 215.039062 C 282.777344 216.292969 283.546875 220.386719 284.917969 226.953125 C 285.613281 230.273438 288.480469 232.683594 291.734375 232.683594 L 314.59375 232.683594 C 317.847656 232.683594 320.714844 230.273438 321.410156 226.953125 C 322.78125 220.386719 323.550781 216.292969 323.640625 215.039062 Z M 282.6875 215.039062 " fill-opacity="1" fill-rule="nonzero"/><path fill="#231f20" d="M 313.222656 231.5625 L 293.105469 231.5625 C 290.117188 231.5625 287.488281 229.441406 286.851562 226.523438 C 285.949219 222.386719 284.875 217.242188 284.875 216.230469 C 284.875 216.191406 284.90625 216.160156 284.945312 216.160156 L 321.382812 216.160156 C 321.421875 216.160156 321.453125 216.191406 321.453125 216.230469 C 321.453125 217.246094 320.378906 222.386719 319.476562 226.523438 C 318.839844 229.445312 316.210938 231.5625 313.222656 231.5625 Z M 285.019531 216.300781 C 285.0625 217.453125 286.109375 222.453125 286.988281 226.496094 C 287.613281 229.347656 290.183594 231.417969 293.105469 231.417969 L 313.222656 231.417969 C 316.144531 231.417969 318.714844 229.347656 319.339844 226.496094 C 320.21875 222.453125 321.265625 217.453125 321.308594 216.300781 Z M 285.019531 216.300781 " fill-opacity="1" fill-rule="nonzero"/><g clip-path="url(#522495f454)"><path fill="#231f20" d="M 340.957031 239.035156 L 265.371094 239.035156 C 263.132812 239.035156 261.027344 238.058594 259.742188 236.421875 C 258.628906 235.003906 258.242188 233.292969 258.65625 231.597656 L 264.972656 205.648438 C 265.65625 202.851562 268.480469 200.820312 271.6875 200.820312 L 298.765625 200.820312 C 298.882812 200.820312 298.980469 200.914062 298.980469 201.03125 L 298.980469 207.894531 C 298.980469 209.96875 300.667969 211.65625 302.742188 211.65625 L 303.644531 211.65625 C 305.71875 211.65625 307.410156 209.96875 307.410156 207.894531 L 307.410156 201.03125 C 307.410156 200.914062 307.503906 200.820312 307.621094 200.820312 L 334.128906 200.820312 C 337.335938 200.820312 340.085938 202.761719 340.816406 205.546875 L 347.648438 231.5 C 348.09375 233.203125 347.730469 234.933594 346.621094 236.375 C 345.335938 238.039062 343.21875 239.035156 340.957031 239.035156 Z M 271.6875 201.246094 C 268.671875 201.246094 266.023438 203.140625 265.386719 205.75 L 259.070312 231.699219 C 258.6875 233.261719 259.046875 234.847656 260.074219 236.15625 C 261.28125 237.691406 263.261719 238.609375 265.371094 238.609375 L 340.957031 238.609375 C 343.085938 238.609375 345.078125 237.675781 346.285156 236.113281 C 347.3125 234.78125 347.648438 233.179688 347.234375 231.605469 L 340.40625 205.65625 C 339.722656 203.058594 337.140625 201.246094 334.128906 201.246094 L 307.835938 201.246094 L 307.835938 207.894531 C 307.835938 210.203125 305.953125 212.082031 303.644531 212.082031 L 302.742188 212.082031 C 300.433594 212.082031 298.554688 210.203125 298.554688 207.894531 L 298.554688 201.246094 Z M 271.6875 201.246094 " fill-opacity="1" fill-rule="nonzero"/></g><g clip-path="url(#4722893e54)"><path fill="#231f20" d="M 334.101562 201.246094 L 330.113281 201.246094 C 330.054688 201.246094 330 201.222656 329.957031 201.179688 C 329.917969 201.136719 329.898438 201.078125 329.902344 201.019531 C 329.925781 200.640625 329.9375 200.1875 329.9375 199.933594 C 329.9375 191.964844 318.042969 185.480469 303.421875 185.480469 C 288.804688 185.480469 276.910156 191.964844 276.910156 199.933594 C 276.910156 200.1875 276.921875 200.644531 276.945312 201.019531 C 276.949219 201.078125 276.929688 201.132812 276.890625 201.179688 C 276.847656 201.222656 276.792969 201.246094 276.734375 201.246094 L 273.097656 201.246094 C 272.984375 201.246094 272.890625 201.15625 272.886719 201.042969 C 272.867188 200.664062 272.859375 200.230469 272.859375 199.996094 C 272.859375 195.414062 276.074219 191.117188 281.910156 187.898438 C 287.707031 184.699219 295.410156 182.9375 303.597656 182.9375 C 311.789062 182.9375 319.492188 184.699219 325.289062 187.898438 C 331.125 191.117188 334.339844 195.414062 334.339844 199.996094 C 334.339844 200.230469 334.332031 200.664062 334.3125 201.042969 C 334.308594 201.15625 334.214844 201.246094 334.101562 201.246094 Z M 330.339844 200.820312 L 333.898438 200.820312 C 333.910156 200.503906 333.914062 200.179688 333.914062 199.996094 C 333.914062 190.824219 320.316406 183.363281 303.597656 183.363281 C 286.882812 183.363281 273.285156 190.824219 273.285156 199.996094 C 273.285156 200.179688 273.289062 200.503906 273.300781 200.820312 L 276.507812 200.820312 C 276.492188 200.492188 276.484375 200.144531 276.484375 199.933594 C 276.484375 195.9375 279.304688 192.1875 284.421875 189.378906 C 289.5 186.589844 296.25 185.054688 303.421875 185.054688 C 310.597656 185.054688 317.34375 186.589844 322.425781 189.378906 C 327.542969 192.1875 330.363281 195.9375 330.363281 199.933594 C 330.363281 200.144531 330.355469 200.492188 330.339844 200.820312 Z M 330.339844 200.820312 " fill-opacity="1" fill-rule="nonzero"/></g><path fill="#231f20" d="M 303.164062 209.726562 C 301.75 209.726562 300.601562 208.574219 300.601562 207.160156 L 300.601562 200.035156 C 300.601562 199.511719 301.027344 199.085938 301.550781 199.085938 L 304.777344 199.085938 C 305.300781 199.085938 305.726562 199.511719 305.726562 200.035156 L 305.726562 207.160156 C 305.726562 208.574219 304.578125 209.726562 303.164062 209.726562 Z M 301.550781 199.511719 C 301.261719 199.511719 301.027344 199.746094 301.027344 200.035156 L 301.027344 207.160156 C 301.027344 208.339844 301.984375 209.300781 303.164062 209.300781 C 304.34375 209.300781 305.300781 208.339844 305.300781 207.160156 L 305.300781 200.035156 C 305.300781 199.746094 305.066406 199.511719 304.777344 199.511719 Z M 301.550781 199.511719 " fill-opacity="1" fill-rule="nonzero"/><path fill="#231f20" d="M 303.164062 210.921875 C 301.238281 210.921875 299.675781 209.355469 299.675781 207.429688 L 299.675781 200.121094 C 299.675781 199.085938 300.515625 198.246094 301.550781 198.246094 L 304.777344 198.246094 C 305.8125 198.246094 306.652344 199.085938 306.652344 200.121094 L 306.652344 207.429688 C 306.652344 209.355469 305.089844 210.921875 303.164062 210.921875 Z M 301.550781 198.386719 C 300.59375 198.386719 299.816406 199.164062 299.816406 200.121094 L 299.816406 207.429688 C 299.816406 209.277344 301.316406 210.777344 303.164062 210.777344 C 305.011719 210.777344 306.511719 209.277344 306.511719 207.429688 L 306.511719 200.121094 C 306.511719 199.164062 305.734375 198.386719 304.777344 198.386719 Z M 301.550781 198.386719 " fill-opacity="1" fill-rule="nonzero"/><path fill="#231f20" d="M 303.613281 212.082031 L 302.710938 212.082031 C 300.402344 212.082031 298.523438 210.203125 298.523438 207.894531 L 298.523438 199.65625 C 298.523438 198.238281 299.679688 197.082031 301.097656 197.082031 L 305.230469 197.082031 C 306.648438 197.082031 307.804688 198.238281 307.804688 199.65625 L 307.804688 207.894531 C 307.804688 210.203125 305.925781 212.082031 303.613281 212.082031 Z M 301.097656 197.507812 C 299.914062 197.507812 298.949219 198.472656 298.949219 199.65625 L 298.949219 207.894531 C 298.949219 209.96875 300.636719 211.65625 302.710938 211.65625 L 303.613281 211.65625 C 305.691406 211.65625 307.378906 209.96875 307.378906 207.894531 L 307.378906 199.65625 C 307.378906 198.472656 306.414062 197.507812 305.230469 197.507812 Z M 301.097656 197.507812 " fill-opacity="1" fill-rule="nonzero"/><path fill="#231f20" d="M 314.59375 233.109375 L 291.734375 233.109375 C 288.277344 233.109375 285.238281 230.554688 284.5 227.042969 C 283.476562 222.136719 282.253906 216.035156 282.253906 214.828125 C 282.253906 214.710938 282.347656 214.613281 282.464844 214.613281 L 323.863281 214.613281 C 323.980469 214.613281 324.074219 214.710938 324.074219 214.828125 C 324.074219 216.035156 322.851562 222.136719 321.828125 227.042969 C 321.089844 230.554688 318.050781 233.109375 314.59375 233.109375 Z M 282.6875 215.039062 C 282.777344 216.292969 283.546875 220.386719 284.917969 226.953125 C 285.613281 230.273438 288.480469 232.683594 291.734375 232.683594 L 314.59375 232.683594 C 317.847656 232.683594 320.714844 230.273438 321.410156 226.953125 C 322.78125 220.386719 323.550781 216.292969 323.640625 215.039062 Z M 282.6875 215.039062 " fill-opacity="1" fill-rule="nonzero"/><path fill="#231f20" d="M 313.222656 231.5625 L 293.105469 231.5625 C 290.117188 231.5625 287.488281 229.441406 286.851562 226.523438 C 285.949219 222.386719 284.875 217.242188 284.875 216.230469 C 284.875 216.191406 284.90625 216.160156 284.945312 216.160156 L 321.382812 216.160156 C 321.421875 216.160156 321.453125 216.191406 321.453125 216.230469 C 321.453125 217.246094 320.378906 222.386719 319.476562 226.523438 C 318.839844 229.445312 316.210938 231.5625 313.222656 231.5625 Z M 285.019531 216.300781 C 285.0625 217.453125 286.109375 222.453125 286.988281 226.496094 C 287.613281 229.347656 290.183594 231.417969 293.105469 231.417969 L 313.222656 231.417969 C 316.144531 231.417969 318.714844 229.347656 319.339844 226.496094 C 320.21875 222.453125 321.265625 217.453125 321.308594 216.300781 Z M 285.019531 216.300781 " fill-opacity="1" fill-rule="nonzero"/><g clip-path="url(#88c4b46509)"><path fill="#231f20" d="M 340.957031 239.035156 L 265.371094 239.035156 C 263.132812 239.035156 261.027344 238.058594 259.742188 236.421875 C 258.628906 235.003906 258.242188 233.292969 258.65625 231.597656 L 264.972656 205.648438 C 265.65625 202.851562 268.480469 200.820312 271.6875 200.820312 L 298.765625 200.820312 C 298.882812 200.820312 298.980469 200.914062 298.980469 201.03125 L 298.980469 207.894531 C 298.980469 209.96875 300.667969 211.65625 302.742188 211.65625 L 303.644531 211.65625 C 305.71875 211.65625 307.410156 209.96875 307.410156 207.894531 L 307.410156 201.03125 C 307.410156 200.914062 307.503906 200.820312 307.621094 200.820312 L 334.128906 200.820312 C 337.335938 200.820312 340.085938 202.761719 340.816406 205.546875 L 347.648438 231.5 C 348.09375 233.203125 347.730469 234.933594 346.621094 236.375 C 345.335938 238.039062 343.21875 239.035156 340.957031 239.035156 Z M 271.6875 201.246094 C 268.671875 201.246094 266.023438 203.140625 265.386719 205.75 L 259.070312 231.699219 C 258.6875 233.261719 259.046875 234.847656 260.074219 236.15625 C 261.28125 237.691406 263.261719 238.609375 265.371094 238.609375 L 340.957031 238.609375 C 343.085938 238.609375 345.078125 237.675781 346.285156 236.113281 C 347.3125 234.78125 347.648438 233.179688 347.234375 231.605469 L 340.40625 205.65625 C 339.722656 203.058594 337.140625 201.246094 334.128906 201.246094 L 307.835938 201.246094 L 307.835938 207.894531 C 307.835938 210.203125 305.953125 212.082031 303.644531 212.082031 L 302.742188 212.082031 C 300.433594 212.082031 298.554688 210.203125 298.554688 207.894531 L 298.554688 201.246094 Z M 271.6875 201.246094 " fill-opacity="1" fill-rule="nonzero"/></g><g clip-path="url(#3966179a9a)"><path fill="#231f20" d="M 334.101562 201.246094 L 330.113281 201.246094 C 330.054688 201.246094 330 201.222656 329.957031 201.179688 C 329.917969 201.136719 329.898438 201.078125 329.902344 201.019531 C 329.925781 200.640625 329.9375 200.1875 329.9375 199.933594 C 329.9375 191.964844 318.042969 185.480469 303.421875 185.480469 C 288.804688 185.480469 276.910156 191.964844 276.910156 199.933594 C 276.910156 200.1875 276.921875 200.644531 276.945312 201.019531 C 276.949219 201.078125 276.929688 201.132812 276.890625 201.179688 C 276.847656 201.222656 276.792969 201.246094 276.734375 201.246094 L 273.097656 201.246094 C 272.984375 201.246094 272.890625 201.15625 272.886719 201.042969 C 272.867188 200.664062 272.859375 200.230469 272.859375 199.996094 C 272.859375 195.414062 276.074219 191.117188 281.910156 187.898438 C 287.707031 184.699219 295.410156 182.9375 303.597656 182.9375 C 311.789062 182.9375 319.492188 184.699219 325.289062 187.898438 C 331.125 191.117188 334.339844 195.414062 334.339844 199.996094 C 334.339844 200.230469 334.332031 200.664062 334.3125 201.042969 C 334.308594 201.15625 334.214844 201.246094 334.101562 201.246094 Z M 330.339844 200.820312 L 333.898438 200.820312 C 333.910156 200.503906 333.914062 200.179688 333.914062 199.996094 C 333.914062 190.824219 320.316406 183.363281 303.597656 183.363281 C 286.882812 183.363281 273.285156 190.824219 273.285156 199.996094 C 273.285156 200.179688 273.289062 200.503906 273.300781 200.820312 L 276.507812 200.820312 C 276.492188 200.492188 276.484375 200.144531 276.484375 199.933594 C 276.484375 195.9375 279.304688 192.1875 284.421875 189.378906 C 289.5 186.589844 296.25 185.054688 303.421875 185.054688 C 310.597656 185.054688 317.34375 186.589844 322.425781 189.378906 C 327.542969 192.1875 330.363281 195.9375 330.363281 199.933594 C 330.363281 200.144531 330.355469 200.492188 330.339844 200.820312 Z M 330.339844 200.820312 " fill-opacity="1" fill-rule="nonzero"/></g><path fill="#231f20" d="M 303.164062 209.726562 C 301.75 209.726562 300.601562 208.574219 300.601562 207.160156 L 300.601562 200.035156 C 300.601562 199.511719 301.027344 199.085938 301.550781 199.085938 L 304.777344 199.085938 C 305.300781 199.085938 305.726562 199.511719 305.726562 200.035156 L 305.726562 207.160156 C 305.726562 208.574219 304.578125 209.726562 303.164062 209.726562 Z M 301.550781 199.511719 C 301.261719 199.511719 301.027344 199.746094 301.027344 200.035156 L 301.027344 207.160156 C 301.027344 208.339844 301.984375 209.300781 303.164062 209.300781 C 304.34375 209.300781 305.300781 208.339844 305.300781 207.160156 L 305.300781 200.035156 C 305.300781 199.746094 305.066406 199.511719 304.777344 199.511719 Z M 301.550781 199.511719 " fill-opacity="1" fill-rule="nonzero"/><path fill="#231f20" d="M 303.164062 210.921875 C 301.238281 210.921875 299.675781 209.355469 299.675781 207.429688 L 299.675781 200.121094 C 299.675781 199.085938 300.515625 198.246094 301.550781 198.246094 L 304.777344 198.246094 C 305.8125 198.246094 306.652344 199.085938 306.652344 200.121094 L 306.652344 207.429688 C 306.652344 209.355469 305.089844 210.921875 303.164062 210.921875 Z M 301.550781 198.386719 C 300.59375 198.386719 299.816406 199.164062 299.816406 200.121094 L 299.816406 207.429688 C 299.816406 209.277344 301.316406 210.777344 303.164062 210.777344 C 305.011719 210.777344 306.511719 209.277344 306.511719 207.429688 L 306.511719 200.121094 C 306.511719 199.164062 305.734375 198.386719 304.777344 198.386719 Z M 301.550781 198.386719 " fill-opacity="1" fill-rule="nonzero"/><path fill="#231f20" d="M 303.613281 212.082031 L 302.710938 212.082031 C 300.402344 212.082031 298.523438 210.203125 298.523438 207.894531 L 298.523438 199.65625 C 298.523438 198.238281 299.679688 197.082031 301.097656 197.082031 L 305.230469 197.082031 C 306.648438 197.082031 307.804688 198.238281 307.804688 199.65625 L 307.804688 207.894531 C 307.804688 210.203125 305.925781 212.082031 303.613281 212.082031 Z M 301.097656 197.507812 C 299.914062 197.507812 298.949219 198.472656 298.949219 199.65625 L 298.949219 207.894531 C 298.949219 209.96875 300.636719 211.65625 302.710938 211.65625 L 303.613281 211.65625 C 305.691406 211.65625 307.378906 209.96875 307.378906 207.894531 L 307.378906 199.65625 C 307.378906 198.472656 306.414062 197.507812 305.230469 197.507812 Z M 301.097656 197.507812 " fill-opacity="1" fill-rule="nonzero"/><path fill="#231f20" d="M 314.59375 233.109375 L 291.734375 233.109375 C 288.277344 233.109375 285.238281 230.554688 284.5 227.042969 C 283.476562 222.136719 282.253906 216.035156 282.253906 214.828125 C 282.253906 214.710938 282.347656 214.613281 282.464844 214.613281 L 323.863281 214.613281 C 323.980469 214.613281 324.074219 214.710938 324.074219 214.828125 C 324.074219 216.035156 322.851562 222.136719 321.828125 227.042969 C 321.089844 230.554688 318.050781 233.109375 314.59375 233.109375 Z M 282.6875 215.039062 C 282.777344 216.292969 283.546875 220.386719 284.917969 226.953125 C 285.613281 230.273438 288.480469 232.683594 291.734375 232.683594 L 314.59375 232.683594 C 317.847656 232.683594 320.714844 230.273438 321.410156 226.953125 C 322.78125 220.386719 323.550781 216.292969 323.640625 215.039062 Z M 282.6875 215.039062 " fill-opacity="1" fill-rule="nonzero"/><path fill="#231f20" d="M 313.222656 231.5625 L 293.105469 231.5625 C 290.117188 231.5625 287.488281 229.441406 286.851562 226.523438 C 285.949219 222.386719 284.875 217.242188 284.875 216.230469 C 284.875 216.191406 284.90625 216.160156 284.945312 216.160156 L 321.382812 216.160156 C 321.421875 216.160156 321.453125 216.191406 321.453125 216.230469 C 321.453125 217.246094 320.378906 222.386719 319.476562 226.523438 C 318.839844 229.445312 316.210938 231.5625 313.222656 231.5625 Z M 285.019531 216.300781 C 285.0625 217.453125 286.109375 222.453125 286.988281 226.496094 C 287.613281 229.347656 290.183594 231.417969 293.105469 231.417969 L 313.222656 231.417969 C 316.144531 231.417969 318.714844 229.347656 319.339844 226.496094 C 320.21875 222.453125 321.265625 217.453125 321.308594 216.300781 Z M 285.019531 216.300781 " fill-opacity="1" fill-rule="nonzero"/><g clip-path="url(#82a5285ccc)"><path fill="#231f20" d="M 340.957031 239.035156 L 265.371094 239.035156 C 263.132812 239.035156 261.027344 238.058594 259.742188 236.421875 C 258.628906 235.003906 258.242188 233.292969 258.65625 231.597656 L 264.972656 205.648438 C 265.65625 202.851562 268.480469 200.820312 271.6875 200.820312 L 298.765625 200.820312 C 298.882812 200.820312 298.980469 200.914062 298.980469 201.03125 L 298.980469 207.894531 C 298.980469 209.96875 300.667969 211.65625 302.742188 211.65625 L 303.644531 211.65625 C 305.71875 211.65625 307.410156 209.96875 307.410156 207.894531 L 307.410156 201.03125 C 307.410156 200.914062 307.503906 200.820312 307.621094 200.820312 L 334.128906 200.820312 C 337.335938 200.820312 340.085938 202.761719 340.816406 205.546875 L 347.648438 231.5 C 348.09375 233.203125 347.730469 234.933594 346.621094 236.375 C 345.335938 238.039062 343.21875 239.035156 340.957031 239.035156 Z M 271.6875 201.246094 C 268.671875 201.246094 266.023438 203.140625 265.386719 205.75 L 259.070312 231.699219 C 258.6875 233.261719 259.046875 234.847656 260.074219 236.15625 C 261.28125 237.691406 263.261719 238.609375 265.371094 238.609375 L 340.957031 238.609375 C 343.085938 238.609375 345.078125 237.675781 346.285156 236.113281 C 347.3125 234.78125 347.648438 233.179688 347.234375 231.605469 L 340.40625 205.65625 C 339.722656 203.058594 337.140625 201.246094 334.128906 201.246094 L 307.835938 201.246094 L 307.835938 207.894531 C 307.835938 210.203125 305.953125 212.082031 303.644531 212.082031 L 302.742188 212.082031 C 300.433594 212.082031 298.554688 210.203125 298.554688 207.894531 L 298.554688 201.246094 Z M 271.6875 201.246094 " fill-opacity="1" fill-rule="nonzero"/></g><g clip-path="url(#e6eef0fbe7)"><path fill="#231f20" d="M 334.101562 201.246094 L 330.113281 201.246094 C 330.054688 201.246094 330 201.222656 329.957031 201.179688 C 329.917969 201.136719 329.898438 201.078125 329.902344 201.019531 C 329.925781 200.640625 329.9375 200.1875 329.9375 199.933594 C 329.9375 191.964844 318.042969 185.480469 303.421875 185.480469 C 288.804688 185.480469 276.910156 191.964844 276.910156 199.933594 C 276.910156 200.1875 276.921875 200.644531 276.945312 201.019531 C 276.949219 201.078125 276.929688 201.132812 276.890625 201.179688 C 276.847656 201.222656 276.792969 201.246094 276.734375 201.246094 L 273.097656 201.246094 C 272.984375 201.246094 272.890625 201.15625 272.886719 201.042969 C 272.867188 200.664062 272.859375 200.230469 272.859375 199.996094 C 272.859375 195.414062 276.074219 191.117188 281.910156 187.898438 C 287.707031 184.699219 295.410156 182.9375 303.597656 182.9375 C 311.789062 182.9375 319.492188 184.699219 325.289062 187.898438 C 331.125 191.117188 334.339844 195.414062 334.339844 199.996094 C 334.339844 200.230469 334.332031 200.664062 334.3125 201.042969 C 334.308594 201.15625 334.214844 201.246094 334.101562 201.246094 Z M 330.339844 200.820312 L 333.898438 200.820312 C 333.910156 200.503906 333.914062 200.179688 333.914062 199.996094 C 333.914062 190.824219 320.316406 183.363281 303.597656 183.363281 C 286.882812 183.363281 273.285156 190.824219 273.285156 199.996094 C 273.285156 200.179688 273.289062 200.503906 273.300781 200.820312 L 276.507812 200.820312 C 276.492188 200.492188 276.484375 200.144531 276.484375 199.933594 C 276.484375 195.9375 279.304688 192.1875 284.421875 189.378906 C 289.5 186.589844 296.25 185.054688 303.421875 185.054688 C 310.597656 185.054688 317.34375 186.589844 322.425781 189.378906 C 327.542969 192.1875 330.363281 195.9375 330.363281 199.933594 C 330.363281 200.144531 330.355469 200.492188 330.339844 200.820312 Z M 330.339844 200.820312 " fill-opacity="1" fill-rule="nonzero"/></g><path fill="#231f20" d="M 303.164062 209.726562 C 301.75 209.726562 300.601562 208.574219 300.601562 207.160156 L 300.601562 200.035156 C 300.601562 199.511719 301.027344 199.085938 301.550781 199.085938 L 304.777344 199.085938 C 305.300781 199.085938 305.726562 199.511719 305.726562 200.035156 L 305.726562 207.160156 C 305.726562 208.574219 304.578125 209.726562 303.164062 209.726562 Z M 301.550781 199.511719 C 301.261719 199.511719 301.027344 199.746094 301.027344 200.035156 L 301.027344 207.160156 C 301.027344 208.339844 301.984375 209.300781 303.164062 209.300781 C 304.34375 209.300781 305.300781 208.339844 305.300781 207.160156 L 305.300781 200.035156 C 305.300781 199.746094 305.066406 199.511719 304.777344 199.511719 Z M 301.550781 199.511719 " fill-opacity="1" fill-rule="nonzero"/><path fill="#231f20" d="M 303.164062 210.921875 C 301.238281 210.921875 299.675781 209.355469 299.675781 207.429688 L 299.675781 200.121094 C 299.675781 199.085938 300.515625 198.246094 301.550781 198.246094 L 304.777344 198.246094 C 305.8125 198.246094 306.652344 199.085938 306.652344 200.121094 L 306.652344 207.429688 C 306.652344 209.355469 305.089844 210.921875 303.164062 210.921875 Z M 301.550781 198.386719 C 300.59375 198.386719 299.816406 199.164062 299.816406 200.121094 L 299.816406 207.429688 C 299.816406 209.277344 301.316406 210.777344 303.164062 210.777344 C 305.011719 210.777344 306.511719 209.277344 306.511719 207.429688 L 306.511719 200.121094 C 306.511719 199.164062 305.734375 198.386719 304.777344 198.386719 Z M 301.550781 198.386719 " fill-opacity="1" fill-rule="nonzero"/><path fill="#231f20" d="M 303.613281 212.082031 L 302.710938 212.082031 C 300.402344 212.082031 298.523438 210.203125 298.523438 207.894531 L 298.523438 199.65625 C 298.523438 198.238281 299.679688 197.082031 301.097656 197.082031 L 305.230469 197.082031 C 306.648438 197.082031 307.804688 198.238281 307.804688 199.65625 L 307.804688 207.894531 C 307.804688 210.203125 305.925781 212.082031 303.613281 212.082031 Z M 301.097656 197.507812 C 299.914062 197.507812 298.949219 198.472656 298.949219 199.65625 L 298.949219 207.894531 C 298.949219 209.96875 300.636719 211.65625 302.710938 211.65625 L 303.613281 211.65625 C 305.691406 211.65625 307.378906 209.96875 307.378906 207.894531 L 307.378906 199.65625 C 307.378906 198.472656 306.414062 197.507812 305.230469 197.507812 Z M 301.097656 197.507812 " fill-opacity="1" fill-rule="nonzero"/><path fill="#231f20" d="M 314.59375 233.109375 L 291.734375 233.109375 C 288.277344 233.109375 285.238281 230.554688 284.5 227.042969 C 283.476562 222.136719 282.253906 216.035156 282.253906 214.828125 C 282.253906 214.710938 282.347656 214.613281 282.464844 214.613281 L 323.863281 214.613281 C 323.980469 214.613281 324.074219 214.710938 324.074219 214.828125 C 324.074219 216.035156 322.851562 222.136719 321.828125 227.042969 C 321.089844 230.554688 318.050781 233.109375 314.59375 233.109375 Z M 282.6875 215.039062 C 282.777344 216.292969 283.546875 220.386719 284.917969 226.953125 C 285.613281 230.273438 288.480469 232.683594 291.734375 232.683594 L 314.59375 232.683594 C 317.847656 232.683594 320.714844 230.273438 321.410156 226.953125 C 322.78125 220.386719 323.550781 216.292969 323.640625 215.039062 Z M 282.6875 215.039062 " fill-opacity="1" fill-rule="nonzero"/><path fill="#231f20" d="M 313.222656 231.5625 L 293.105469 231.5625 C 290.117188 231.5625 287.488281 229.441406 286.851562 226.523438 C 285.949219 222.386719 284.875 217.242188 284.875 216.230469 C 284.875 216.191406 284.90625 216.160156 284.945312 216.160156 L 321.382812 216.160156 C 321.421875 216.160156 321.453125 216.191406 321.453125 216.230469 C 321.453125 217.246094 320.378906 222.386719 319.476562 226.523438 C 318.839844 229.445312 316.210938 231.5625 313.222656 231.5625 Z M 285.019531 216.300781 C 285.0625 217.453125 286.109375 222.453125 286.988281 226.496094 C 287.613281 229.347656 290.183594 231.417969 293.105469 231.417969 L 313.222656 231.417969 C 316.144531 231.417969 318.714844 229.347656 319.339844 226.496094 C 320.21875 222.453125 321.265625 217.453125 321.308594 216.300781 Z M 285.019531 216.300781 " fill-opacity="1" fill-rule="nonzero"/><g clip-path="url(#a646811b39)"><path fill="#231f20" d="M 340.957031 239.035156 L 265.371094 239.035156 C 263.132812 239.035156 261.027344 238.058594 259.742188 236.421875 C 258.628906 235.003906 258.242188 233.292969 258.65625 231.597656 L 264.972656 205.648438 C 265.65625 202.851562 268.480469 200.820312 271.6875 200.820312 L 298.765625 200.820312 C 298.882812 200.820312 298.980469 200.914062 298.980469 201.03125 L 298.980469 207.894531 C 298.980469 209.96875 300.667969 211.65625 302.742188 211.65625 L 303.644531 211.65625 C 305.71875 211.65625 307.410156 209.96875 307.410156 207.894531 L 307.410156 201.03125 C 307.410156 200.914062 307.503906 200.820312 307.621094 200.820312 L 334.128906 200.820312 C 337.335938 200.820312 340.085938 202.761719 340.816406 205.546875 L 347.648438 231.5 C 348.09375 233.203125 347.730469 234.933594 346.621094 236.375 C 345.335938 238.039062 343.21875 239.035156 340.957031 239.035156 Z M 271.6875 201.246094 C 268.671875 201.246094 266.023438 203.140625 265.386719 205.75 L 259.070312 231.699219 C 258.6875 233.261719 259.046875 234.847656 260.074219 236.15625 C 261.28125 237.691406 263.261719 238.609375 265.371094 238.609375 L 340.957031 238.609375 C 343.085938 238.609375 345.078125 237.675781 346.285156 236.113281 C 347.3125 234.78125 347.648438 233.179688 347.234375 231.605469 L 340.40625 205.65625 C 339.722656 203.058594 337.140625 201.246094 334.128906 201.246094 L 307.835938 201.246094 L 307.835938 207.894531 C 307.835938 210.203125 305.953125 212.082031 303.644531 212.082031 L 302.742188 212.082031 C 300.433594 212.082031 298.554688 210.203125 298.554688 207.894531 L 298.554688 201.246094 Z M 271.6875 201.246094 " fill-opacity="1" fill-rule="nonzero"/></g><g clip-path="url(#2d06aed763)"><path fill="#231f20" d="M 334.101562 201.246094 L 330.113281 201.246094 C 330.054688 201.246094 330 201.222656 329.957031 201.179688 C 329.917969 201.136719 329.898438 201.078125 329.902344 201.019531 C 329.925781 200.640625 329.9375 200.1875 329.9375 199.933594 C 329.9375 191.964844 318.042969 185.480469 303.421875 185.480469 C 288.804688 185.480469 276.910156 191.964844 276.910156 199.933594 C 276.910156 200.1875 276.921875 200.644531 276.945312 201.019531 C 276.949219 201.078125 276.929688 201.132812 276.890625 201.179688 C 276.847656 201.222656 276.792969 201.246094 276.734375 201.246094 L 273.097656 201.246094 C 272.984375 201.246094 272.890625 201.15625 272.886719 201.042969 C 272.867188 200.664062 272.859375 200.230469 272.859375 199.996094 C 272.859375 195.414062 276.074219 191.117188 281.910156 187.898438 C 287.707031 184.699219 295.410156 182.9375 303.597656 182.9375 C 311.789062 182.9375 319.492188 184.699219 325.289062 187.898438 C 331.125 191.117188 334.339844 195.414062 334.339844 199.996094 C 334.339844 200.230469 334.332031 200.664062 334.3125 201.042969 C 334.308594 201.15625 334.214844 201.246094 334.101562 201.246094 Z M 330.339844 200.820312 L 333.898438 200.820312 C 333.910156 200.503906 333.914062 200.179688 333.914062 199.996094 C 333.914062 190.824219 320.316406 183.363281 303.597656 183.363281 C 286.882812 183.363281 273.285156 190.824219 273.285156 199.996094 C 273.285156 200.179688 273.289062 200.503906 273.300781 200.820312 L 276.507812 200.820312 C 276.492188 200.492188 276.484375 200.144531 276.484375 199.933594 C 276.484375 195.9375 279.304688 192.1875 284.421875 189.378906 C 289.5 186.589844 296.25 185.054688 303.421875 185.054688 C 310.597656 185.054688 317.34375 186.589844 322.425781 189.378906 C 327.542969 192.1875 330.363281 195.9375 330.363281 199.933594 C 330.363281 200.144531 330.355469 200.492188 330.339844 200.820312 Z M 330.339844 200.820312 " fill-opacity="1" fill-rule="nonzero"/></g><path fill="#231f20" d="M 303.164062 209.726562 C 301.75 209.726562 300.601562 208.574219 300.601562 207.160156 L 300.601562 200.035156 C 300.601562 199.511719 301.027344 199.085938 301.550781 199.085938 L 304.777344 199.085938 C 305.300781 199.085938 305.726562 199.511719 305.726562 200.035156 L 305.726562 207.160156 C 305.726562 208.574219 304.578125 209.726562 303.164062 209.726562 Z M 301.550781 199.511719 C 301.261719 199.511719 301.027344 199.746094 301.027344 200.035156 L 301.027344 207.160156 C 301.027344 208.339844 301.984375 209.300781 303.164062 209.300781 C 304.34375 209.300781 305.300781 208.339844 305.300781 207.160156 L 305.300781 200.035156 C 305.300781 199.746094 305.066406 199.511719 304.777344 199.511719 Z M 301.550781 199.511719 " fill-opacity="1" fill-rule="nonzero"/><path fill="#231f20" d="M 303.164062 210.921875 C 301.238281 210.921875 299.675781 209.355469 299.675781 207.429688 L 299.675781 200.121094 C 299.675781 199.085938 300.515625 198.246094 301.550781 198.246094 L 304.777344 198.246094 C 305.8125 198.246094 306.652344 199.085938 306.652344 200.121094 L 306.652344 207.429688 C 306.652344 209.355469 305.089844 210.921875 303.164062 210.921875 Z M 301.550781 198.386719 C 300.59375 198.386719 299.816406 199.164062 299.816406 200.121094 L 299.816406 207.429688 C 299.816406 209.277344 301.316406 210.777344 303.164062 210.777344 C 305.011719 210.777344 306.511719 209.277344 306.511719 207.429688 L 306.511719 200.121094 C 306.511719 199.164062 305.734375 198.386719 304.777344 198.386719 Z M 301.550781 198.386719 " fill-opacity="1" fill-rule="nonzero"/><path fill="#231f20" d="M 303.613281 212.082031 L 302.710938 212.082031 C 300.402344 212.082031 298.523438 210.203125 298.523438 207.894531 L 298.523438 199.65625 C 298.523438 198.238281 299.679688 197.082031 301.097656 197.082031 L 305.230469 197.082031 C 306.648438 197.082031 307.804688 198.238281 307.804688 199.65625 L 307.804688 207.894531 C 307.804688 210.203125 305.925781 212.082031 303.613281 212.082031 Z M 301.097656 197.507812 C 299.914062 197.507812 298.949219 198.472656 298.949219 199.65625 L 298.949219 207.894531 C 298.949219 209.96875 300.636719 211.65625 302.710938 211.65625 L 303.613281 211.65625 C 305.691406 211.65625 307.378906 209.96875 307.378906 207.894531 L 307.378906 199.65625 C 307.378906 198.472656 306.414062 197.507812 305.230469 197.507812 Z M 301.097656 197.507812 " fill-opacity="1" fill-rule="nonzero"/><path fill="#231f20" d="M 314.59375 233.109375 L 291.734375 233.109375 C 288.277344 233.109375 285.238281 230.554688 284.5 227.042969 C 283.476562 222.136719 282.253906 216.035156 282.253906 214.828125 C 282.253906 214.710938 282.347656 214.613281 282.464844 214.613281 L 323.863281 214.613281 C 323.980469 214.613281 324.074219 214.710938 324.074219 214.828125 C 324.074219 216.035156 322.851562 222.136719 321.828125 227.042969 C 321.089844 230.554688 318.050781 233.109375 314.59375 233.109375 Z M 282.6875 215.039062 C 282.777344 216.292969 283.546875 220.386719 284.917969 226.953125 C 285.613281 230.273438 288.480469 232.683594 291.734375 232.683594 L 314.59375 232.683594 C 317.847656 232.683594 320.714844 230.273438 321.410156 226.953125 C 322.78125 220.386719 323.550781 216.292969 323.640625 215.039062 Z M 282.6875 215.039062 " fill-opacity="1" fill-rule="nonzero"/><path fill="#231f20" d="M 313.222656 231.5625 L 293.105469 231.5625 C 290.117188 231.5625 287.488281 229.441406 286.851562 226.523438 C 285.949219 222.386719 284.875 217.242188 284.875 216.230469 C 284.875 216.191406 284.90625 216.160156 284.945312 216.160156 L 321.382812 216.160156 C 321.421875 216.160156 321.453125 216.191406 321.453125 216.230469 C 321.453125 217.246094 320.378906 222.386719 319.476562 226.523438 C 318.839844 229.445312 316.210938 231.5625 313.222656 231.5625 Z M 285.019531 216.300781 C 285.0625 217.453125 286.109375 222.453125 286.988281 226.496094 C 287.613281 229.347656 290.183594 231.417969 293.105469 231.417969 L 313.222656 231.417969 C 316.144531 231.417969 318.714844 229.347656 319.339844 226.496094 C 320.21875 222.453125 321.265625 217.453125 321.308594 216.300781 Z M 285.019531 216.300781 " fill-opacity="1" fill-rule="nonzero"/><path stroke-linecap="butt" transform="matrix(0.749989, -0.00409893, 0.00409893, 0.749989, 258.212419, 245.546497)" fill="none" stroke-linejoin="miter" d="M 0.000497916 0.500515 L 119.877303 0.49942 " stroke="#000000" stroke-width="1" stroke-opacity="1" stroke-miterlimit="4"/><g clip-path="url(#b98f69f26b)"><path fill="#000000" d="M 341.042969 239.0625 L 265.378906 239.0625 C 263.136719 239.0625 261.03125 238.082031 259.742188 236.441406 C 258.628906 235.019531 258.242188 233.304688 258.65625 231.605469 L 264.980469 205.585938 C 265.664062 202.777344 268.488281 200.742188 271.703125 200.742188 L 298.808594 200.742188 C 298.925781 200.742188 299.023438 200.835938 299.023438 200.957031 L 299.023438 207.835938 C 299.023438 209.917969 300.710938 211.609375 302.789062 211.609375 L 303.691406 211.609375 C 305.769531 211.609375 307.460938 209.917969 307.460938 207.835938 L 307.460938 200.957031 C 307.460938 200.835938 307.554688 200.742188 307.671875 200.742188 L 334.207031 200.742188 C 337.417969 200.742188 340.171875 202.691406 340.902344 205.484375 L 347.742188 231.503906 C 348.1875 233.214844 347.824219 234.949219 346.710938 236.394531 C 345.425781 238.066406 343.308594 239.0625 341.042969 239.0625 Z M 271.703125 201.167969 C 268.683594 201.167969 266.03125 203.070312 265.394531 205.683594 L 259.070312 231.707031 C 258.6875 233.273438 259.046875 234.863281 260.078125 236.175781 C 261.285156 237.714844 263.265625 238.636719 265.378906 238.636719 L 341.042969 238.636719 C 343.175781 238.636719 345.167969 237.699219 346.375 236.132812 C 347.402344 234.796875 347.742188 233.191406 347.328125 231.613281 L 340.492188 205.59375 C 339.808594 202.988281 337.222656 201.167969 334.207031 201.167969 L 307.886719 201.167969 L 307.886719 207.835938 C 307.886719 210.152344 306.003906 212.035156 303.691406 212.035156 L 302.789062 212.035156 C 300.476562 212.035156 298.597656 210.152344 298.597656 207.835938 L 298.597656 201.167969 Z M 271.703125 201.167969 " fill-opacity="1" fill-rule="nonzero"/></g><g clip-path="url(#8525cfd7fc)"><path fill="#000000" d="M 334.179688 201.167969 L 330.1875 201.167969 C 330.128906 201.167969 330.074219 201.144531 330.03125 201.101562 C 329.992188 201.058594 329.972656 201 329.976562 200.941406 C 330 200.5625 330.011719 200.109375 330.011719 199.855469 C 330.011719 191.863281 318.105469 185.363281 303.46875 185.363281 C 288.835938 185.363281 276.929688 191.863281 276.929688 199.855469 C 276.929688 200.109375 276.941406 200.566406 276.964844 200.941406 C 276.96875 201 276.949219 201.058594 276.910156 201.101562 C 276.867188 201.144531 276.8125 201.167969 276.753906 201.167969 L 273.113281 201.167969 C 273 201.167969 272.90625 201.078125 272.898438 200.964844 C 272.882812 200.585938 272.875 200.148438 272.875 199.914062 C 272.875 195.324219 276.089844 191.015625 281.933594 187.785156 C 287.738281 184.578125 295.449219 182.8125 303.644531 182.8125 C 311.84375 182.8125 319.554688 184.578125 325.359375 187.785156 C 331.203125 191.015625 334.421875 195.324219 334.421875 199.914062 C 334.421875 200.152344 334.410156 200.585938 334.394531 200.964844 C 334.386719 201.078125 334.292969 201.167969 334.179688 201.167969 Z M 330.414062 200.742188 L 333.976562 200.742188 C 333.988281 200.425781 333.996094 200.101562 333.996094 199.914062 C 333.996094 190.722656 320.378906 183.238281 303.644531 183.238281 C 286.914062 183.238281 273.300781 190.722656 273.300781 199.914062 C 273.300781 200.097656 273.304688 200.425781 273.316406 200.742188 L 276.527344 200.742188 C 276.511719 200.414062 276.503906 200.066406 276.503906 199.855469 C 276.503906 195.847656 279.324219 192.085938 284.449219 189.269531 C 289.535156 186.476562 296.289062 184.9375 303.46875 184.9375 C 310.652344 184.9375 317.40625 186.476562 322.492188 189.269531 C 327.617188 192.085938 330.4375 195.847656 330.4375 199.855469 C 330.4375 200.066406 330.429688 200.414062 330.414062 200.742188 Z M 330.414062 200.742188 " fill-opacity="1" fill-rule="nonzero"/></g><path fill="#000000" d="M 303.210938 209.671875 C 301.796875 209.671875 300.644531 208.519531 300.644531 207.101562 L 300.644531 199.957031 C 300.644531 199.433594 301.070312 199.003906 301.59375 199.003906 L 304.828125 199.003906 C 305.351562 199.003906 305.777344 199.433594 305.777344 199.957031 L 305.777344 207.101562 C 305.777344 208.519531 304.625 209.671875 303.210938 209.671875 Z M 301.59375 199.433594 C 301.304688 199.433594 301.070312 199.667969 301.070312 199.957031 L 301.070312 207.101562 C 301.070312 208.285156 302.03125 209.246094 303.210938 209.246094 C 304.390625 209.246094 305.351562 208.285156 305.351562 207.101562 L 305.351562 199.957031 C 305.351562 199.667969 305.117188 199.433594 304.828125 199.433594 Z M 301.59375 199.433594 " fill-opacity="1" fill-rule="nonzero"/><path fill="#000000" d="M 303.210938 210.871094 C 301.285156 210.871094 299.71875 209.300781 299.71875 207.371094 L 299.71875 200.042969 C 299.71875 199.003906 300.558594 198.160156 301.59375 198.160156 L 304.828125 198.160156 C 305.863281 198.160156 306.703125 199.003906 306.703125 200.042969 L 306.703125 207.371094 C 306.703125 209.300781 305.136719 210.871094 303.210938 210.871094 Z M 301.59375 198.304688 C 300.636719 198.304688 299.859375 199.082031 299.859375 200.042969 L 299.859375 207.371094 C 299.859375 209.222656 301.363281 210.726562 303.210938 210.726562 C 305.058594 210.726562 306.5625 209.222656 306.5625 207.371094 L 306.5625 200.042969 C 306.5625 199.082031 305.785156 198.304688 304.828125 198.304688 Z M 301.59375 198.304688 " fill-opacity="1" fill-rule="nonzero"/><path fill="#000000" d="M 303.660156 212.035156 L 302.757812 212.035156 C 300.445312 212.035156 298.566406 210.152344 298.566406 207.835938 L 298.566406 199.574219 C 298.566406 198.152344 299.722656 196.996094 301.140625 196.996094 L 305.28125 196.996094 C 306.699219 196.996094 307.855469 198.152344 307.855469 199.574219 L 307.855469 207.835938 C 307.855469 210.152344 305.972656 212.035156 303.660156 212.035156 Z M 301.140625 197.421875 C 299.957031 197.421875 298.992188 198.386719 298.992188 199.574219 L 298.992188 207.835938 C 298.992188 209.917969 300.679688 211.609375 302.757812 211.609375 L 303.660156 211.609375 C 305.738281 211.609375 307.429688 209.917969 307.429688 207.835938 L 307.429688 199.574219 C 307.429688 198.386719 306.464844 197.421875 305.28125 197.421875 Z M 301.140625 197.421875 " fill-opacity="1" fill-rule="nonzero"/><path fill="#000000" d="M 314.652344 233.117188 L 291.769531 233.117188 C 288.308594 233.117188 285.265625 230.558594 284.527344 227.035156 C 283.503906 222.117188 282.277344 216 282.277344 214.789062 C 282.277344 214.671875 282.375 214.574219 282.492188 214.574219 L 323.929688 214.574219 C 324.046875 214.574219 324.144531 214.671875 324.144531 214.789062 C 324.144531 216 322.917969 222.117188 321.894531 227.035156 C 321.15625 230.558594 318.113281 233.117188 314.652344 233.117188 Z M 282.714844 215 C 282.804688 216.257812 283.570312 220.363281 284.945312 226.949219 C 285.640625 230.277344 288.511719 232.691406 291.769531 232.691406 L 314.652344 232.691406 C 317.910156 232.691406 320.78125 230.277344 321.476562 226.949219 C 322.851562 220.363281 323.617188 216.257812 323.707031 215 Z M 282.714844 215 " fill-opacity="1" fill-rule="nonzero"/><path fill="#000000" d="M 313.28125 231.566406 L 293.140625 231.566406 C 290.148438 231.566406 287.515625 229.445312 286.882812 226.519531 C 285.976562 222.371094 284.902344 217.210938 284.902344 216.195312 C 284.902344 216.15625 284.933594 216.125 284.972656 216.125 L 321.449219 216.125 C 321.488281 216.125 321.519531 216.15625 321.519531 216.195312 C 321.519531 217.210938 320.441406 222.371094 319.539062 226.519531 C 318.902344 229.445312 316.269531 231.566406 313.28125 231.566406 Z M 285.046875 216.269531 C 285.089844 217.421875 286.136719 222.4375 287.019531 226.488281 C 287.640625 229.347656 290.214844 231.425781 293.140625 231.425781 L 313.28125 231.425781 C 316.207031 231.425781 318.78125 229.347656 319.402344 226.488281 C 320.285156 222.4375 321.332031 217.421875 321.375 216.269531 Z M 285.046875 216.269531 " fill-opacity="1" fill-rule="nonzero"/><g clip-path="url(#63c4a882ec)"><path fill="#000000" d="M 138.867188 157.53125 C 142.097656 157.613281 144.367188 159.199219 146.363281 161.546875 C 149.265625 164.964844 152.351562 168.222656 155.382812 171.527344 C 156.003906 172.207031 155.734375 172.664062 155.207031 173.183594 C 152.734375 175.625 150.082031 177.859375 147.457031 180.125 C 146.039062 181.351562 145.984375 181.394531 144.628906 180.132812 C 142.425781 178.070312 140.421875 175.804688 138.398438 173.566406 C 136.574219 171.546875 134.792969 169.488281 132.953125 167.484375 C 132.449219 166.933594 132.269531 166.324219 132.199219 165.625 C 132.042969 164.101562 131.984375 162.582031 132.242188 161.066406 C 132.421875 160.035156 132.507812 159.972656 133.628906 159.644531 C 133.90625 160.101562 133.742188 160.621094 133.789062 161.105469 C 133.914062 162.378906 134.628906 163.3125 135.6875 163.550781 C 136.6875 163.777344 137.796875 163.25 138.421875 162.253906 C 138.964844 161.394531 138.839844 160.066406 138.128906 159.234375 C 137.484375 158.480469 136.613281 158.277344 135.691406 158.382812 C 134.808594 158.484375 134.511719 158.167969 134.578125 157.296875 C 134.660156 156.1875 134.488281 155.09375 134.230469 154.011719 C 133.335938 150.289062 128.773438 148.789062 125.71875 150.644531 C 125.414062 150.832031 125.109375 151.027344 124.804688 151.214844 C 123.710938 151.894531 122.566406 152.191406 121.3125 151.664062 C 120.980469 151.523438 120.613281 151.472656 120.492188 151.886719 C 120.371094 152.285156 120.777344 152.355469 121.039062 152.460938 C 122.511719 153.0625 123.851562 152.671875 125.113281 151.851562 C 126.265625 151.097656 127.464844 150.609375 128.890625 150.699219 C 131.117188 150.84375 132.710938 152.070312 133.363281 154.203125 C 133.753906 155.484375 133.800781 156.789062 133.78125 158.109375 C 133.777344 158.488281 133.65625 158.75 133.292969 158.871094 C 131.808594 159.363281 131.34375 160.535156 131.304688 161.949219 C 131.269531 163.085938 131.273438 164.222656 131.308594 165.359375 C 131.34375 166.457031 131.707031 167.386719 132.488281 168.257812 C 136.304688 172.503906 140.058594 176.808594 144.09375 180.855469 C 145.773438 182.535156 145.769531 182.527344 147.546875 180.96875 C 150.246094 178.605469 153.023438 176.332031 155.558594 173.785156 C 157.0625 172.273438 157.082031 172.226562 155.683594 170.628906 C 151.945312 166.351562 148.160156 162.117188 144.117188 158.125 C 143.660156 157.675781 143.148438 157.457031 142.546875 157.351562 C 140.898438 157.0625 139.253906 156.757812 137.605469 156.464844 C 137.402344 156.429688 137.191406 156.40625 136.984375 156.417969 C 136.730469 156.433594 136.496094 156.535156 136.503906 156.839844 C 136.511719 157.09375 136.726562 157.167969 136.941406 157.203125 C 137.558594 157.304688 138.175781 157.410156 138.867188 157.53125 M 137.652344 162.121094 C 136.867188 162.800781 135.945312 162.921875 135.316406 162.4375 C 134.714844 161.972656 134.304688 160.160156 134.660156 159.523438 C 134.753906 159.351562 134.90625 159.257812 135.085938 159.230469 C 135.933594 159.097656 136.792969 159.121094 137.421875 159.769531 C 138.03125 160.398438 138.109375 161.191406 137.652344 162.121094 Z M 137.652344 162.121094 " fill-opacity="1" fill-rule="nonzero"/></g></svg>