<svg width="28" height="28" viewBox="0 0 28 28" fill="none" xmlns="http://www.w3.org/2000/svg">
<path d="M25.8125 7.59063C25.6465 7.40436 25.443 7.2554 25.2152 7.15359C24.9874 7.05178 24.7407 6.99943 24.4912 7H19.25C19.25 5.60761 18.6969 4.27226 17.7123 3.28769C16.7277 2.30312 15.3924 1.75 14 1.75C12.6076 1.75 11.2722 2.30312 10.2877 3.28769C9.3031 4.27226 8.74997 5.60761 8.74997 7H3.50872C3.26073 7.00067 3.01566 7.05361 2.78951 7.15538C2.56335 7.25715 2.3612 7.40546 2.19622 7.59063C2.03263 7.7751 1.90987 7.99207 1.83598 8.22731C1.76209 8.46254 1.73874 8.71074 1.76747 8.95562L3.32716 22.0806C3.37775 22.5083 3.58423 22.9022 3.9071 23.1872C4.22997 23.4721 4.64655 23.628 5.07716 23.625H22.9326C23.3632 23.628 23.7798 23.4721 24.1027 23.1872C24.4256 22.9022 24.632 22.5083 24.6826 22.0806L26.2423 8.95562C26.2709 8.71066 26.2474 8.46242 26.1733 8.22718C26.0992 7.99194 25.9763 7.77501 25.8125 7.59063ZM14 3.5C14.9282 3.5 15.8185 3.86875 16.4748 4.52513C17.1312 5.1815 17.5 6.07174 17.5 7H10.5C10.5 6.07174 10.8687 5.1815 11.5251 4.52513C12.1815 3.86875 13.0717 3.5 14 3.5ZM22.9425 21.875C22.9393 21.8762 22.9358 21.8762 22.9326 21.875H5.05857L3.50872 8.75H8.74997V11.375C8.74997 11.6071 8.84216 11.8296 9.00626 11.9937C9.17035 12.1578 9.39291 12.25 9.62497 12.25C9.85704 12.25 10.0796 12.1578 10.2437 11.9937C10.4078 11.8296 10.5 11.6071 10.5 11.375V8.75H17.5V11.375C17.5 11.6071 17.5922 11.8296 17.7563 11.9937C17.9203 12.1578 18.1429 12.25 18.375 12.25C18.607 12.25 18.8296 12.1578 18.9937 11.9937C19.1578 11.8296 19.25 11.6071 19.25 11.375V8.75H24.5L22.9425 21.875Z" fill="#0E0E0E"/>
</svg>
