<svg width="28" height="28" viewBox="0 0 28 28" fill="none" xmlns="http://www.w3.org/2000/svg">
<path d="M27.9366 12.7969L26.4053 8.96875C26.2754 8.64486 26.0512 8.36744 25.7618 8.17243C25.4724 7.97742 25.1312 7.8738 24.7822 7.875H21V7C21 6.76794 20.9078 6.54538 20.7437 6.38128C20.5796 6.21719 20.3571 6.125 20.125 6.125H3.5C3.03587 6.125 2.59075 6.30937 2.26256 6.63756C1.93437 6.96575 1.75 7.41087 1.75 7.875V20.125C1.75 20.5891 1.93437 21.0342 2.26256 21.3624C2.59075 21.6906 3.03587 21.875 3.5 21.875H5.35938C5.55214 22.6279 5.98999 23.2952 6.6039 23.7717C7.2178 24.2482 7.97285 24.5069 8.75 24.5069C9.52715 24.5069 10.2822 24.2482 10.8961 23.7717C11.51 23.2952 11.9479 22.6279 12.1406 21.875H17.6094C17.8021 22.6279 18.24 23.2952 18.8539 23.7717C19.4678 24.2482 20.2229 24.5069 21 24.5069C21.7771 24.5069 22.5322 24.2482 23.1461 23.7717C23.76 23.2952 24.1979 22.6279 24.3906 21.875H26.25C26.7141 21.875 27.1592 21.6906 27.4874 21.3624C27.8156 21.0342 28 20.5891 28 20.125V13.125C28.0003 13.0125 27.9788 12.9011 27.9366 12.7969ZM21 9.625H24.7822L25.8322 12.25H21V9.625ZM3.5 7.875H19.25V14.875H3.5V7.875ZM8.75 22.75C8.40388 22.75 8.06554 22.6474 7.77775 22.4551C7.48997 22.2628 7.26566 21.9895 7.13321 21.6697C7.00076 21.3499 6.9661 20.9981 7.03363 20.6586C7.10115 20.3191 7.26782 20.0073 7.51256 19.7626C7.75731 19.5178 8.06913 19.3511 8.40859 19.2836C8.74806 19.2161 9.09993 19.2508 9.4197 19.3832C9.73947 19.5157 10.0128 19.74 10.2051 20.0278C10.3974 20.3155 10.5 20.6539 10.5 21C10.5 21.4641 10.3156 21.9092 9.98744 22.2374C9.65925 22.5656 9.21413 22.75 8.75 22.75ZM17.6094 20.125H12.1406C11.9479 19.3721 11.51 18.7048 10.8961 18.2283C10.2822 17.7518 9.52715 17.4931 8.75 17.4931C7.97285 17.4931 7.2178 17.7518 6.6039 18.2283C5.98999 18.7048 5.55214 19.3721 5.35938 20.125H3.5V16.625H19.25V17.9714C18.8476 18.204 18.4955 18.5141 18.2138 18.8838C17.9322 19.2534 17.7268 19.6753 17.6094 20.125ZM21 22.75C20.6539 22.75 20.3155 22.6474 20.0278 22.4551C19.74 22.2628 19.5157 21.9895 19.3832 21.6697C19.2508 21.3499 19.2161 20.9981 19.2836 20.6586C19.3512 20.3191 19.5178 20.0073 19.7626 19.7626C20.0073 19.5178 20.3191 19.3511 20.6586 19.2836C20.9981 19.2161 21.3499 19.2508 21.6697 19.3832C21.9895 19.5157 22.2628 19.74 22.4551 20.0278C22.6474 20.3155 22.75 20.6539 22.75 21C22.75 21.4641 22.5656 21.9092 22.2374 22.2374C21.9092 22.5656 21.4641 22.75 21 22.75ZM26.25 20.125H24.3906C24.1955 19.374 23.7569 18.7089 23.1433 18.2338C22.5297 17.7588 21.776 17.5007 21 17.5V14H26.25V20.125Z" fill="#0E0E0E"/>
</svg>
