<svg width="200" height="200" viewBox="0 0 200 200" fill="none" xmlns="http://www.w3.org/2000/svg">
<path d="M134.375 93.75C134.375 100.549 132.359 107.195 128.582 112.848C124.805 118.501 119.436 122.907 113.155 125.508C106.874 128.11 99.9619 128.791 93.2938 127.464C86.6257 126.138 80.5007 122.864 75.6932 118.057C70.8858 113.249 67.6119 107.124 66.2855 100.456C64.9592 93.7881 65.6399 86.8765 68.2417 80.5953C70.8434 74.314 75.2494 68.9454 80.9023 65.1682C86.5552 61.3911 93.2013 59.375 100 59.375C109.114 59.3853 117.851 63.0103 124.295 69.4546C130.74 75.8989 134.365 84.6364 134.375 93.75ZM181.25 100C181.25 116.07 176.485 131.779 167.557 145.14C158.629 158.502 145.94 168.916 131.093 175.065C116.247 181.215 99.9099 182.824 84.1489 179.689C68.388 176.554 53.9106 168.815 42.5476 157.452C31.1846 146.089 23.4463 131.612 20.3112 115.851C17.1762 100.09 18.7852 83.7535 24.9348 68.907C31.0844 54.0605 41.4985 41.371 54.86 32.4431C68.2214 23.5152 83.9303 18.75 100 18.75C121.542 18.7727 142.195 27.3403 157.427 42.5727C172.66 57.8051 181.227 78.4581 181.25 100ZM168.75 100C168.74 90.7464 166.864 81.5898 163.234 73.0778C159.604 64.5659 154.295 56.8734 147.624 50.4604C140.952 44.0475 133.056 39.0457 124.408 35.7544C115.759 32.463 106.536 30.9496 97.2891 31.3047C60.4922 32.7266 31.1485 63.375 31.25 100.195C31.2853 116.957 37.4674 133.124 48.625 145.633C53.169 139.042 58.941 133.39 65.625 128.984C66.1949 128.608 66.8724 128.429 67.5539 128.474C68.2353 128.519 68.8832 128.786 69.3985 129.234C77.8921 136.581 88.7466 140.624 99.9766 140.624C111.207 140.624 122.061 136.581 130.555 129.234C131.07 128.786 131.718 128.519 132.399 128.474C133.081 128.429 133.758 128.608 134.328 128.984C141.021 133.387 146.801 139.04 151.352 145.633C162.564 133.078 168.758 116.833 168.75 100Z" fill="#0E0E0E" fill-opacity="0.2"/>
</svg>
